<?xml version="1.0" encoding="utf-8"?>
<!-- Generator: Adobe Illustrator 16.0.3, SVG Export Plug-In . SVG Version: 6.00 Build 0)  -->
<!DOCTYPE svg PUBLIC "-//W3C//DTD SVG 1.1//EN" "http://www.w3.org/Graphics/SVG/1.1/DTD/svg11.dtd">
<svg version="1.1" id="Layer_1" xmlns="http://www.w3.org/2000/svg" xmlns:xlink="http://www.w3.org/1999/xlink" x="0px" y="0px"
	 width="1280px" height="1280px" viewBox="0 0 1280 1280" enable-background="new 0 0 1280 1280" xml:space="preserve">
<g>
	<path fill="#E8871A" d="M20,20v1240h1240V20H20z M977.5,977.791016c0,20.583008-16.699219,37.208008-37.244141,37.208008
		H339.743164c-20.48877-0.145508-37.07959-16.699219-37.242676-37.208008V302.206543
		c0-20.5625,16.680176-37.20752,37.242676-37.20752h450.255859L977.5,452.499512V977.791016z"/>
	<polygon fill="#E8871A" points="677.499023,489.999023 602.498047,489.999023 602.498047,602.498535 489.998535,602.498535 
		489.998535,677.499023 602.498047,677.499023 602.498047,789.999023 677.499023,789.999023 677.499023,677.499023 
		789.999023,677.499023 789.999023,602.498535 677.499023,602.498535 	"/>
</g>
</svg>
