<?xml version="1.0" encoding="utf-8"?>
<!-- Generator: Adobe Illustrator 16.0.3, SVG Export Plug-In . SVG Version: 6.00 Build 0)  -->
<!DOCTYPE svg PUBLIC "-//W3C//DTD SVG 1.1//EN" "http://www.w3.org/Graphics/SVG/1.1/DTD/svg11.dtd">
<svg version="1.1" id="Layer_1" xmlns="http://www.w3.org/2000/svg" xmlns:xlink="http://www.w3.org/1999/xlink" x="0px" y="0px"
	 width="1280px" height="1280px" viewBox="0 0 1280 1280" enable-background="new 0 0 1280 1280" xml:space="preserve">
<g>
	<polygon fill="#E8871A" points="682.499023,469.999023 597.498047,469.999023 597.498047,597.498535 469.998535,597.498535 
		469.998535,682.499023 597.498047,682.499023 597.498047,809.999023 682.499023,809.999023 682.499023,682.499023 
		809.999023,682.499023 809.999023,597.498535 682.499023,597.498535 	"/>
	<path fill="#E8871A" d="M20,20v1240h1240V20H20z M1022.5,1022.830078c0,23.327148-18.925781,42.168945-42.209961,42.168945
		H299.708984c-23.220703-0.165039-42.023438-18.925781-42.208496-42.168945V257.16748
		c0-23.304199,18.904297-42.168457,42.208496-42.168457h510.290039L1022.5,427.499512V1022.830078z"/>
</g>
</svg>
