<?xml version="1.0" encoding="utf-8"?>
<!-- Generator: Adobe Illustrator 16.0.3, SVG Export Plug-In . SVG Version: 6.00 Build 0)  -->
<!DOCTYPE svg PUBLIC "-//W3C//DTD SVG 1.1//EN" "http://www.w3.org/Graphics/SVG/1.1/DTD/svg11.dtd">
<svg version="1.1" id="Layer_1" xmlns="http://www.w3.org/2000/svg" xmlns:xlink="http://www.w3.org/1999/xlink" x="0px" y="0px"
	 width="1280px" height="1280px" viewBox="0.5 0.5 1280 1280" enable-background="new 0.5 0.5 1280 1280" xml:space="preserve">
<g>
	<polygon fill="#E8871A" points="753,378 678,378 678,528 528,528 528,603 678,603 678,753 753,753 753,603 903,603 903,528 
		753,528 	"/>
	<path fill="#E8871A" d="M20.5,20.5v1240h1240V20.5H20.5z M865.5,1015.5h-525c-41.253418,0-75-33.763672-75-75v-525h75v525h525
		V1015.5z M1015.5,790.5c0,41.236328-33.763672,75-75,75h-450c-41.253906,0-75-33.763672-75-75v-450c0-41.253418,33.746094-75,75-75
		h450c41.236328,0,75,33.746582,75,75V790.5z"/>
</g>
</svg>
