<?xml version="1.0" encoding="utf-8"?>
<!-- Generator: Adobe Illustrator 16.0.3, SVG Export Plug-In . SVG Version: 6.00 Build 0)  -->
<!DOCTYPE svg PUBLIC "-//W3C//DTD SVG 1.1//EN" "http://www.w3.org/Graphics/SVG/1.1/DTD/svg11.dtd">
<svg version="1.1" id="Layer_1" xmlns="http://www.w3.org/2000/svg" xmlns:xlink="http://www.w3.org/1999/xlink" x="0px" y="0px"
	 width="32px" height="32px" viewBox="0 0 32 32" enable-background="new 0 0 32 32" xml:space="preserve">
<g>
	<polygon fill="#E8871A" points="18.8125,9.4375 16.9375,9.4375 16.9375,13.1875 13.1875,13.1875 13.1875,15.0625 16.9375,15.0625 
		16.9375,18.8125 18.8125,18.8125 18.8125,15.0625 22.5625,15.0625 22.5625,13.1875 18.8125,13.1875 	"/>
	<path fill="#E8871A" d="M0,0v32h32V0H0z M21.625,25.375H8.5c-1.03125,0-1.875-0.844238-1.875-1.875V10.375H8.5V23.5h13.125V25.375z
		 M25.375,19.75c0,1.030762-0.844238,1.875-1.875,1.875H12.25c-1.03125,0-1.875-0.844238-1.875-1.875V8.5
		c0-1.03125,0.84375-1.875,1.875-1.875H23.5c1.030762,0,1.875,0.84375,1.875,1.875V19.75z"/>
</g>
<g>
	<rect fill="#E51CDB" width="1" height="1"/>
	<rect x="31" fill="#E51CDB" width="1" height="1"/>
	<rect y="31" fill="#E51CDB" width="1" height="1"/>
	<rect x="31" y="31" fill="#E51CDB" width="1" height="1"/>
</g>
</svg>
