<?xml version="1.0" encoding="utf-8"?>
<!-- Generator: Adobe Illustrator 16.0.3, SVG Export Plug-In . SVG Version: 6.00 Build 0)  -->
<!DOCTYPE svg PUBLIC "-//W3C//DTD SVG 1.1//EN" "http://www.w3.org/Graphics/SVG/1.1/DTD/svg11.dtd">
<svg version="1.1" id="Layer_1" xmlns="http://www.w3.org/2000/svg" xmlns:xlink="http://www.w3.org/1999/xlink" x="0px" y="0px"
	 width="1280px" height="1280px" viewBox="0 0 1280 1280" enable-background="new 0 0 1280 1280" xml:space="preserve">
<rect fill="#FEFEFE" width="1280" height="1280"/>
<g>
	<polygon fill="#E8871A" points="756.128906,369.032227 678.709961,369.032227 678.709961,523.871094 523.871094,523.871094 
		523.871094,601.290527 678.709961,601.290527 678.709961,756.128906 756.128906,756.128906 756.128906,601.290527 
		910.967773,601.290527 910.967773,523.871094 756.128906,523.871094 	"/>
	<path fill="#E8871A" d="M0,0v1280h1280V0H0z M872.257813,1027.09668H330.322754
		c-42.584473,0-77.419434-34.852539-77.419434-77.418945V407.742188h77.419434v541.935547h541.935059V1027.09668z
		 M1027.09668,794.838867c0,42.566406-34.852539,77.418945-77.418945,77.418945H485.161133
		c-42.583984,0-77.418945-34.852539-77.418945-77.418945V330.322754c0-42.584473,34.834961-77.419434,77.418945-77.419434
		h464.516602c42.566406,0,77.418945,34.834961,77.418945,77.419434V794.838867z"/>
</g>
</svg>
