<?xml version="1.0" encoding="utf-8"?>
<!-- Generator: Adobe Illustrator 16.0.3, SVG Export Plug-In . SVG Version: 6.00 Build 0)  -->
<!DOCTYPE svg PUBLIC "-//W3C//DTD SVG 1.1//EN" "http://www.w3.org/Graphics/SVG/1.1/DTD/svg11.dtd">
<svg version="1.1" id="Layer_1" xmlns="http://www.w3.org/2000/svg" xmlns:xlink="http://www.w3.org/1999/xlink" x="0px" y="0px"
	 width="1280px" height="1280px" viewBox="0 0 1280 1280" enable-background="new 0 0 1280 1280" xml:space="preserve">
<g>
	<polygon fill="#E8871A" points="752.5,377.5 677.5,377.5 677.5,527.5 527.5,527.5 527.5,602.5 677.5,602.5 677.5,752.5 
		752.5,752.5 752.5,602.5 902.5,602.5 902.5,527.5 752.5,527.5 	"/>
	<path fill="#E8871A" d="M20,20v1240h1240V20H20z M865,1015H340c-41.253418,0-75-33.763672-75-75V415h75v525h525V1015z M1015,790
		c0,41.236328-33.763672,75-75,75H490c-41.253418,0-75-33.763672-75-75V340c0-41.253418,33.746582-75,75-75h450
		c41.236328,0,75,33.746582,75,75V790z"/>
</g>
</svg>
