<?xml version="1.0" encoding="utf-8"?>
<!-- Generator: Adobe Illustrator 16.0.3, SVG Export Plug-In . SVG Version: 6.00 Build 0)  -->
<!DOCTYPE svg PUBLIC "-//W3C//DTD SVG 1.1//EN" "http://www.w3.org/Graphics/SVG/1.1/DTD/svg11.dtd">
<svg version="1.1" id="Layer_1" xmlns="http://www.w3.org/2000/svg" xmlns:xlink="http://www.w3.org/1999/xlink" x="0px" y="0px"
	 width="1280px" height="1280px" viewBox="0 0 1280 1280" enable-background="new 0 0 1280 1280" xml:space="preserve">
<g>
	<path fill="#E8871A" d="M246.25,949.375c0,31.089844,25.1875,56.25,56.25,56.25h675c31.089844,0,56.25-25.160156,56.25-56.25
		v-112.5h-787.5V949.375z M330.625,893.125h337.5c15.546875,0,28.125,12.578125,28.125,28.125s-12.578125,28.125-28.125,28.125
		h-337.5c-15.546875,0-28.125-12.578125-28.125-28.125S315.078125,893.125,330.625,893.125z"/>
	<path fill="#E8871A" d="M499.375,330.625h-168.75c-15.546875,0-28.125,12.578125-28.125,28.125s12.578125,28.125,28.125,28.125
		h168.75c15.546875,0,28.125-12.578125,28.125-28.125S514.921875,330.625,499.375,330.625z"/>
	<path fill="#E8871A" d="M977.5,611.875h-675c-31.0625,0-56.25,25.160156-56.25,56.25v112.5h787.5v-112.5
		C1033.75,637.035156,1008.589844,611.875,977.5,611.875z M836.875,724.375h-506.25c-15.546875,0-28.125-12.578125-28.125-28.125
		s12.578125-28.125,28.125-28.125h506.25c15.546875,0,28.125,12.578125,28.125,28.125S852.421875,724.375,836.875,724.375z"/>
	<path fill="#E8871A" d="M943.550781,330.625h-44.601563c-3.738281,0-7.308594,1.484375-9.945313,4.121094
		c-5.492188,5.492188-5.492188,14.445313,0,19.882813l22.304688,22.304688c5.546875,5.492188,14.445313,5.492188,19.882813,0
		l22.304688-22.304688c2.636719-2.636719,4.117188-6.207031,4.117188-9.941406
		C957.613281,336.886719,951.296875,330.625,943.550781,330.625z"/>
	<path fill="#E8871A" d="M20,20v1240h1240V20H20z M1090,949.375c0,62.128906-50.371094,112.5-112.5,112.5h-675
		c-62.128906,0-112.5-50.371094-112.5-112.5v-281.25c0-62.128906,50.371094-112.5,112.5-112.5h675
		c62.128906,0,112.5,50.371094,112.5,112.5V949.375z M1090,415c0,46.582031-37.792969,84.375-84.375,84.375h-731.25
		C227.765625,499.375,190,461.582031,190,415V302.5c0-46.582031,37.765625-84.375,84.375-84.375h731.25
		c46.582031,0,84.375,37.792969,84.375,84.375V415z"/>
</g>
</svg>
