<?xml version="1.0" encoding="utf-8"?>
<!-- Generator: Adobe Illustrator 16.0.3, SVG Export Plug-In . SVG Version: 6.00 Build 0)  -->
<!DOCTYPE svg PUBLIC "-//W3C//DTD SVG 1.1//EN" "http://www.w3.org/Graphics/SVG/1.1/DTD/svg11.dtd">
<svg version="1.1" id="Layer_1" xmlns="http://www.w3.org/2000/svg" xmlns:xlink="http://www.w3.org/1999/xlink" x="0px" y="0px"
	 width="1280px" height="1280px" viewBox="0 0 1280 1280" enable-background="new 0 0 1280 1280" xml:space="preserve">
<g>
	<path fill="#E8871A" d="M502.5,337.5h-165c-15.202148,0-27.5,12.297852-27.5,27.5s12.297852,27.5,27.5,27.5h165
		c15.202148,0,27.5-12.297852,27.5-27.5S517.702148,337.5,502.5,337.5z"/>
	<path fill="#E8871A" d="M970,612.5H310c-30.373047,0-55,24.601074-55,55v110h770v-110C1025,637.101074,1000.397461,612.5,970,612.5
		z M832.5,722.5h-495c-15.202148,0-27.5-12.297852-27.5-27.5s12.297852-27.5,27.5-27.5h495c15.202148,0,27.5,12.297852,27.5,27.5
		S847.702148,722.5,832.5,722.5z"/>
	<path fill="#E8871A" d="M255,942.5c0,30.398926,24.626953,55,55,55h660c30.397461,0,55-24.601074,55-55v-110H255V942.5z
		 M337.5,887.5h330c15.202148,0,27.5,12.297852,27.5,27.5s-12.297852,27.5-27.5,27.5h-330c-15.202148,0-27.5-12.297852-27.5-27.5
		S322.297852,887.5,337.5,887.5z"/>
	<path fill="#E8871A" d="M936.803711,337.5h-43.608398c-3.657227,0-7.147461,1.452148-9.725586,4.030273
		c-5.370117,5.370117-5.370117,14.123535,0,19.439453l21.810547,21.810547c5.422852,5.370117,14.12207,5.370117,19.439453,0
		l21.810547-21.810547c2.578125-2.578125,4.023438-6.068359,4.023438-9.719727
		C950.553711,343.622559,944.379883,337.5,936.803711,337.5z"/>
	<path fill="#E8871A" d="M20,20v1240h1240V20H20z M1080,942.5c0,60.749023-49.250977,110-110,110H310
		c-60.749023,0-110-49.250977-110-110v-275c0-60.749023,49.250977-110,110-110h660c60.749023,0,110,49.250977,110,110V942.5z
		 M1080,420c0,45.546875-36.953125,82.5-82.5,82.5h-715c-45.573242,0-82.5-36.953125-82.5-82.5V310
		c0-45.546875,36.926758-82.5,82.5-82.5h715c45.546875,0,82.5,36.953125,82.5,82.5V420z"/>
</g>
</svg>
