<?xml version="1.0" encoding="utf-8"?>
<!-- Generator: Adobe Illustrator 16.0.3, SVG Export Plug-In . SVG Version: 6.00 Build 0)  -->
<!DOCTYPE svg PUBLIC "-//W3C//DTD SVG 1.1//EN" "http://www.w3.org/Graphics/SVG/1.1/DTD/svg11.dtd">
<svg version="1.1" id="Layer_1" xmlns="http://www.w3.org/2000/svg" xmlns:xlink="http://www.w3.org/1999/xlink" x="0px" y="0px"
	 width="1280px" height="1280px" viewBox="0 0 1280 1280" enable-background="new 0 0 1280 1280" xml:space="preserve">
<g>
	<path fill="#E8871A" d="M20,20v1240h1240V20H20z M890,931.666016C890,977.482422,852.482422,1015,806.666016,1015H473.332031
		C427.515625,1015,390,977.482422,390,931.666016v-500h500V931.666016z M931.666016,390H348.332031v-83.333984h145.833984
		L535.832031,265h208.333984l41.666016,41.666016h145.833984V390z"/>
	<polygon fill="#E8871A" points="492.945313,811.671875 551.662109,870.427734 640,782.089844 728.337891,870.427734 
		787.052734,811.671875 698.755859,723.332031 787.052734,634.994141 728.337891,576.238281 640,664.576172 551.253906,576.238281 
		492.498047,634.994141 581.242188,723.332031 	"/>
</g>
</svg>
