<?xml version="1.0" encoding="utf-8"?>
<!-- Generator: Adobe Illustrator 16.0.3, SVG Export Plug-In . SVG Version: 6.00 Build 0)  -->
<!DOCTYPE svg PUBLIC "-//W3C//DTD SVG 1.1//EN" "http://www.w3.org/Graphics/SVG/1.1/DTD/svg11.dtd">
<svg version="1.1" id="Layer_1" xmlns="http://www.w3.org/2000/svg" xmlns:xlink="http://www.w3.org/1999/xlink" x="0px" y="0px"
	 width="1280px" height="1280px" viewBox="0 0 1280 1280" enable-background="new 0 0 1280 1280" xml:space="preserve">
<g>
	<path fill="#E8871A" d="M640,1038.59375c21.99707,0,39.84375-17.84668,39.84375-39.84375S661.99707,958.90625,640,958.90625
		c-21.914063,0-39.84375,17.763672-39.84375,39.84375S618.00293,1038.59375,640,1038.59375z"/>
	<path fill="#E8871A" d="M20,20v1240h1240V20H20z M958.75,786.25c0,58.736328-47.513672,106.25-106.25,106.25H746.25v106.25
		c0,58.736328-47.513672,106.25-106.25,106.25s-106.25-47.513672-106.25-106.25V892.5H427.5
		c-58.736328,0-106.25-47.513672-106.25-106.25v-53.125h637.5V786.25z M958.75,680h-637.5V308.125
		c0-29.251953,23.873047-53.125,53.125-53.125H427.5l53.125,106.25L533.75,255h53.125L640,361.25L693.125,255h212.5
		c29.21875,0,53.125,23.873047,53.125,53.125V680z"/>
</g>
</svg>
