<?xml version="1.0" encoding="utf-8"?>
<!-- Generator: Adobe Illustrator 16.0.3, SVG Export Plug-In . SVG Version: 6.00 Build 0)  -->
<!DOCTYPE svg PUBLIC "-//W3C//DTD SVG 1.1//EN" "http://www.w3.org/Graphics/SVG/1.1/DTD/svg11.dtd">
<svg version="1.1" id="Layer_1" xmlns="http://www.w3.org/2000/svg" xmlns:xlink="http://www.w3.org/1999/xlink" x="0px" y="0px"
	 width="1280px" height="1280px" viewBox="0 0 1280 1280" enable-background="new 0 0 1280 1280" xml:space="preserve">
<g>
	<path fill="#E8871A" d="M20,20v1240h1240V20H20z M958.160156,1051.369141
		c-175.679688,175.777344-460.611328,175.777344-636.363281,0c-175.730469-175.679688-175.730469-460.635742,0-636.364258
		L640.001953,96.797852l318.207031,318.207031C1133.9375,590.733398,1133.9375,875.689453,958.160156,1051.369141z"/>
	<path fill="#E8871A" d="M640.001953,238.200195v0.048828L392.498047,485.706055
		c-65.720703,65.574219-102.611328,154.634766-102.488281,247.504883
		c-0.123047,92.869141,46.76416,179.646484,102.488281,216.794922c52.438965,34.957031,184.481934,50,247.504883,50
		c63.022461,0,195.068359-15.039063,247.504883-50c55.72168-37.150391,102.585938-123.925781,102.488281-216.794922
		c0.097656-92.870117-36.767578-181.930664-102.488281-247.504883L640.001953,238.200195z M640,785c-41.420898,0-75-33.579102-75-75
		s33.579102-75,75-75s75,33.579102,75,75S681.420898,785,640,785z"/>
</g>
</svg>
