<?xml version="1.0" encoding="utf-8"?>
<!-- Generator: Adobe Illustrator 16.0.3, SVG Export Plug-In . SVG Version: 6.00 Build 0)  -->
<!DOCTYPE svg PUBLIC "-//W3C//DTD SVG 1.1//EN" "http://www.w3.org/Graphics/SVG/1.1/DTD/svg11.dtd">
<svg version="1.1" id="Layer_1" xmlns="http://www.w3.org/2000/svg" xmlns:xlink="http://www.w3.org/1999/xlink" x="0px" y="0px"
	 width="1280px" height="1280px" viewBox="0 0 1280 1280" enable-background="new 0 0 1280 1280" xml:space="preserve">
<g>
	<path fill="#E8871A" d="M640,321.25c-43.992188,0-79.6875,35.695313-79.6875,79.6875S596.007813,480.625,640,480.625
		s79.6875-35.695313,79.6875-79.6875S683.992188,321.25,640,321.25z"/>
	<path fill="#E8871A" d="M507.1875,746.25c-43.992188,0-79.6875,35.695313-79.6875,79.6875s35.695313,79.6875,79.6875,79.6875
		s79.6875-35.695313,79.6875-79.6875S551.179688,746.25,507.1875,746.25z"/>
	<path fill="#E8871A" d="M20,20v1240h1240V20H20z M875.535156,749.984375
		c-53.851563-16.339844-104.589844-31.75-129.285156-3.734375c-32.0625,36.316406-25.214844,96.601563-18.675781,155.121094
		C737.015625,985.105469,746.042969,1065,640,1065c-234.703125,0-425-190.296875-425-425s190.296875-425,425-425
		s425,190.296875,425,425C1065,807.363281,965.804688,777.324219,875.535156,749.984375z"/>
	<path fill="#E8871A" d="M480.625,560.3125c0-43.992188-35.695313-79.6875-79.6875-79.6875
		c-44.019531,0-79.6875,35.695313-79.6875,79.6875S356.917969,640,400.9375,640C444.929688,640,480.625,604.304688,480.625,560.3125
		z"/>
	<path fill="#E8871A" d="M879.0625,480.625c-43.992188,0-79.6875,35.695313-79.6875,79.6875S835.070313,640,879.0625,640
		s79.6875-35.695313,79.6875-79.6875S923.054688,480.625,879.0625,480.625z"/>
</g>
</svg>
