<?xml version="1.0" encoding="utf-8"?>
<!-- Generator: Adobe Illustrator 16.0.3, SVG Export Plug-In . SVG Version: 6.00 Build 0)  -->
<!DOCTYPE svg PUBLIC "-//W3C//DTD SVG 1.1//EN" "http://www.w3.org/Graphics/SVG/1.1/DTD/svg11.dtd">
<svg version="1.1" id="Layer_1" xmlns="http://www.w3.org/2000/svg" xmlns:xlink="http://www.w3.org/1999/xlink" x="0px" y="0px"
	 width="1600px" height="1248px" viewBox="-80 0 1600 1248" enable-background="new -80 0 1600 1248" xml:space="preserve">
<g>
	<path fill="#FE95C7" d="M720.864,1124c-277.662-0.016-501.068-223.146-500.876-500.258C220.181,346.84,443.625,123.78,720.59,124
		c276.729,0.222,499.706,223.874,499.422,500.927C1219.727,900.531,996.209,1124.018,720.864,1124z"/>
	<path fill="#FE7FC3" d="M1211.255,625.387c0,275.926-219.242,493.027-499.958,490.162
		c-260.225-2.656-491.727-213.341-482.344-510.438c8.05-254.861,220.116-477.28,508.715-473.093
		C992.516,135.713,1211.255,360.402,1211.255,625.387z"/>
	<path fill="#FE69B5" d="M1018.508,266.085c43.756,32.039,78.251,72.676,109.729,116.409
		c53.24,73.979,77.464,157.195,75.347,247.228c-4.046,172.048-80.207,303.216-226.045,395.869
		c-81.271,51.629-168.862,77.839-263.912,76.104c-153.756-2.806-277.397-69.447-375.372-186.115
		c-68.729-81.844-99.541-178.608-99.826-283.278c-0.314-115.292,41.739-216.764,119.064-303.01
		c21.213-23.66,40.821-48.939,68.323-66.079c2.399,2.434,0.951,4.881,0.072,7.365c-3.144,8.888-8.247,16.857-11.88,25.55
		c-3.119,7.466-10.554,11.799-16.094,17.438c-21.665,22.049-37.235,47.862-49.289,76.104c-5.218,12.227-9.993,24.569-13.706,37.332
		C319.99,453.21,308,480.903,294.104,507.631c-4.619,8.886-6.793,18.548-9.048,28.171c-7.449,31.788-12.212,63.927-12.173,96.663
		c-1.56,9.034-3.153,18.064-2.676,27.306c0.075,1.442,0.159,3.101-0.571,4.271c-8.898,14.276-3.352,29.242-1.251,43.578
		c9.585,65.411,34.39,124.965,72.313,178.916c25.831,36.75,56.775,68.886,92.51,96.187c12.082,9.229,25.46,16.604,38.91,23.721
		c31.577,16.707,63.188,33.382,97.41,44.233c40.879,12.961,82.552,20.884,125.557,23.431c45.294,2.683,89.778-1.57,133.591-11.729
		c45.311-10.507,88.383-27.473,128.905-50.758c21.79-12.521,43.274-25.219,62.751-41.319
		c35.129-29.039,64.314-63.161,88.991-101.272c24.194-37.37,42.036-77.597,53.318-120.696c6.681-25.518,10.616-51.479,12.846-77.735
		c1.651-19.458,4.829-38.852,4.236-58.41c-0.806-26.682-6.628-52.584-14.018-78.149c-0.345-1.188-0.989-2.188-1.747-3.133
		c-3.691-5.574-3.152-12.406-5.736-18.466c-10.229-23.979-22.618-46.811-37.061-68.377c-7.332-10.948-15.602-21.26-21.682-33.044
		c-2.1-4.063-4.157-8.14-5.782-12.419c-9.108-23.276-21.867-44.624-35.142-65.651c-4.102-6.496-9.537-12.139-14.998-17.602
		c-13.816-13.827-27.223-28.087-42.479-40.4c-1.897-1.53-3.588-3.274-4.647-5.485c-1.438-3.003-3.711-6.229-0.187-9.146
		c3.129-2.586,7.031-4.045,10.694-1.544C1010.723,261.347,1015.177,262.837,1018.508,266.085z"/>
	<path fill="#FE52C6" d="M333.087,425.468c14.558-47.131,36.947-89.258,73.075-124.109c9.746-9.404,13.271-25.255,19.653-38.147
		c29.059-29.656,64.564-49.951,101.932-66.321c155.563-68.152,305.35-55.356,448.5,35.328c15.157,9.602,28.224,22.499,42.261,33.867
		c-7.906,1.87-14.661-13.377-21.329-2.659c-1.337,2.148,10.479,13.484,17.211,19.481c35.988,32.062,64.339,69.378,80.935,115.028
		c-3.778,2.935-6.501,0.212-8.649-2.157c-7.108-7.834-15.771-14.055-22.578-22.192c-8.72-10.422-20.285-17.439-30.963-25.517
		c-5.029-3.873-8.54-9.159-12.817-13.733c-16.072-17.192-33.885-32.17-54.933-43.04c-7.521-3.884-12.954-10.857-20.808-14.324
		c-1.754-0.773-3.267-2.17-5.092-2.737c-19.506-6.051-37.129-16.803-56.959-22.273c-8.175-2.255-16.549-4.396-24.604-7.842
		c-6.885-2.943-15.564-2.265-23.507-2.284c-2.922-0.007-5.847,0.143-8.501-1.227c-4.475-2.307-9.131-2.93-14.055-2.04
		c-2.92,0.527-5.769,0.077-8.549-0.886c-3.58-1.241-7.212-1.147-10.636,0.269c-7.147,2.957-14.197,1.963-21.259-0.105
		c-5.598-1.639-11.116-3.144-16.982-0.91c-3.094,1.177-6.179,0.413-8.966-1.429c-1.401-0.925-3.141-2.894-4.331-2.304
		c-6.412,3.174-13.039,0.942-19.447,1.542c-12.287,1.151-24.654,3.12-36.343,7.713c-1.85,0.726-4.086,0.582-5.521-0.795
		c-4.314-4.143-8.683-1.513-13.416-1.137c-10.687,0.849-20.743,5.85-31.862,3.949c-9.087-1.553-18.15-0.349-27.188,2.017
		c-10.578,2.768-21.371,4.507-31.992,7.416c-10.022,2.743-20.789,3.976-30.617,7.786c-17.035,6.604-34.19,12.908-49.803,22.898
		c-11.327,7.248-23.923,12.406-35.056,20.18c-14.244,9.946-27.538,21.07-41.056,31.925c-3.821,3.069-5.499,7.905-8.881,11.37
		c-10.2,7.401-18.422,16.894-26.985,25.976c-10.07,10.68-18.667,22.644-28.312,33.703c-4.582,5.254-9.837,9.878-14.25,15.319
		C338.722,425.15,336.511,427.717,333.087,425.468z"/>
	<path fill="#F458A7" d="M1164.874,529.842c13.455,29.498,18.457,61.014,17.01,92.783c-3.415,74.971-14.866,148.288-51.569,215.569
		c-76.168,139.624-196.811,212.988-351.233,234.844c-126.859,17.951-243.229-15.136-345.233-88.354
		c-100.736-72.31-158.203-174.319-169.763-299.327c-1.591-17.207,4.283-35.105,6.7-52.685c0.887-0.381-0.344-0.401,0.562-0.403
		c10.06-0.034,11.056-7.47,12.314-14.816c1.622-9.472,4.531-18.637,6.812-27.952c0.627-2.561,1.298-5.163,3.893-6.596
		c4.142-0.626,5.337,2.701,6.617,5.36c4.869,10.117,10.649,19.733,15.905,29.632c1.962,3.694,5.38,6.07,7.428,9.594
		c1.438,4.525,2.022,9.188,2.241,13.912c0.402,3.175,0.489,6.333-0.533,9.424c-1.671,4.103-4.92,7.143-7.528,10.563
		c-9.853,12.923-11.556,28.97-17.09,43.523c-1.748,4.596,0.264,9.597,1.252,14.273c9.129,43.251,23.178,84.735,45.721,122.962
		c23.722,40.229,53.097,75.693,88.973,105.866c22.449,18.881,46.102,35.841,71.793,49.896c17.181,9.4,35.415,16.637,53.921,22.847
		c27.009,9.066,54.531,16.479,82.813,20.543c30.316,4.354,60.625,7.313,91.446,5.389c20.494-1.276,40.899-2.519,61.162-5.852
		c26.725-4.4,52.795-11.27,78.487-19.854c58.829-19.658,107.204-55.326,151.266-97.767c27.315-26.313,50.245-55.983,68.544-89.198
		c14.188-25.756,24.33-53.018,29.878-81.937c0.685-3.573,1.745-7.038,3.025-10.418c7.628-20.138,12.918-40.951,17.963-61.831
		c1.922-7.958,0.938-15.812-1.86-23.437c-1.329-3.62-3.466-6.904-4.6-10.632c-1.51-11.375-0.384-22.88-2.121-34.288
		c-1.186-7.771-3.891-15.282-3.938-23.23c-1.012-16.465,1.355-32.924,0.078-49.405c-0.215-2.769,0.058-5.753,1.271-8.44
		c2.877-2.913,4.773-0.531,6.477,1.414c2.705,3.093,4.767,6.628,6.142,10.525c3.754,10.642,8.685,20.863,11.363,31.889
		c0.199,0.818,0.291,2.337,1.012,2.197c0.748-0.146,0.611-1.656,0.66-2.592c0.599-11.285,0.07-22.582,0.328-33.87
		C1162.539,536.467,1161.717,532.65,1164.874,529.842z"/>
	<path fill="#FE51B8" d="M295.419,583.41c-3.423,12.818-7.692,25.489-9.985,38.508c-1.662,9.434-4.448,14.35-14.65,10.756
		c-3.065-76.234,24.602-143.229,62.305-207.206c21.265-22.95,42.461-45.964,63.861-68.788c3.366-3.591,7.645-6.328,11.5-9.458
		c0.725,0.644,1.608,1.399,1.545,2.323c-0.611,8.868,2.682,17.478,2.633,25.948c-0.039,7.031,0.412,13.434,2.728,19.889
		c-3.039,6.037-7.83,10.832-12.141,15.836c-19.004,22.071-33.272,47.021-45.74,73.138c-3.792,6.031-8.441,11.084-15.18,13.967
		c-4.349,1.86-7.503,5.369-10.148,9.07c-8.675,12.138-18.065,23.81-25.032,37.093c-4.778,9.11-6.785,19.02-7.957,29.136
		C298.741,577.2,298.708,580.926,295.419,583.41z"/>
	<path fill="#FE51B8" d="M1164.874,529.842c-0.47,17.049-0.903,34.099-1.472,51.144c-0.049,1.424-1.008,2.817-1.545,4.227
		c-0.643-1.446-1.362-2.862-1.918-4.342c-6.534-17.463-8.601-36.902-22.601-51.063c-1.573-0.945-2.241-2.548-2.564-4.17
		c-3.662-18.387-16.612-30.576-29.68-41.996c-7.25-6.332-16.01-11.205-23.633-17.385c-4.391-9.638-6.483-20.159-11.175-29.663
		c-9.35-18.941-18.521-37.991-29.95-55.822c-0.781-1.218-1.417-2.513-1.833-3.915c-0.605-7.798-1.82-15.466-4.38-22.903
		c-0.751-2.18-1.521-4.582,0.328-6.737c17.663,15.488,35.281,31.028,53.047,46.396c2.206,1.907,5.197,2.905,7.823,4.323
		c19.818,39.035,49.912,72.229,64.879,114.001C1162.273,517.721,1163.34,523.865,1164.874,529.842z"/>
	<path fill="#FE4BC2" d="M1034.453,347.216c1.934,10.146,3.866,20.292,5.8,30.438c-2.095,4.591-6.078,3.314-9.431,2.613
		c-7.476-1.567-14.069-1.095-21.601,1.942c-6.75,2.721-13.483,5.449-20.214,8.161c-4.945,1.994-10.406,3.163-15.257,6
		c-2.521,1.475-5.091,2.721-6.901,5.105c-0.73,0.962-1.543,2.343-2.608,2.413c-8.931,0.605-14.92,7.586-22.728,10.347
		c-10.795,3.815-20.984,8.45-29.826,15.806c-0.752,0.626-1.625,1.3-2.545,1.306c-12.045,0.076-21.867,9.166-34.125,8.377
		c-1.437-0.094-2.859,0.509-4.185,1.091c-9.227,4.061-18.039,8.147-28.781,3.387c-5.539-2.456-11.772,1.137-17.186,3.945
		c-3.45,1.791-6.81,2.72-10.035-0.254c-2.247-2.07-4.348-1.449-6.533,0.002c-3.644,2.42-7.519,3.02-11.744,1.694
		c-7.546-2.362-14.889-1.03-21.842,2.054c-5.562,2.467-10.642,2.77-15.716-0.855c-1.833-1.312-3.995-2.236-6.14-1.4
		c-12.095,4.722-24.239-0.166-36.351,0.306c-2.634,0.104-5.281-0.455-7.854,0.551c-4.28,1.672-8.314,3.221-13.057,0.412
		c-1.799-1.066-5.353-1.384-7.607,0.505c-4.756,3.976-10.101,3.795-15.776,3.106c-7.331-0.888-14.622,1.594-22.241-0.616
		c-3.241-0.939-7.825,2.874-12.125,3.675c-3.69,0.685-7.188,0.909-10.413-1.406c-1.611-1.159-3.544-2.32-5.369-1.754
		c-14.975,4.647-29.61-2.339-44.705-1.254c-8.615,0.619-18.086-2.948-27.386-3.078c-9.647-9.248-24.308-5.506-34.553-13.319
		c-1.722-1.313-4.113-1.396-6.295-1.374c-5.008,0.054-9.375-0.993-13.085-4.882c-2.95-3.09-7.104-3.792-11.421-3.454
		c-4.308,0.338-7.298-1.582-10.705-4.556c-5.504-4.803-12.504-7.781-19.479-10.35c-7.67-2.823-15.353-5.709-20.776-12.252
		c-2.078-2.509-4.364-1.209-6.643-1.026c-4.44,0.355-9.143,2.342-12.776-2.127c-1.93-16.423-3.859-32.847-5.789-49.269
		c30.254-38.158,72.168-59.732,115.047-79.297c35.431-16.166,73.164-23.572,112.16-26.604c29.393-2.287,58.914-6.591,88.102-9.604
		c34.672-3.577,70.533,6.612,105.977,7.734c44.197,1.399,82.869,19.124,120.215,38.83
		C982.163,295.28,1012.413,316.749,1034.453,347.216z"/>
	<path fill="#FE45B4" d="M1082.273,466.045c25.219,15.326,49.88,31.135,55.065,63.762c-0.004,19.32-0.007,38.641-0.01,57.96
		c-3.202,2.024-4.947-0.462-6.663-2.35c-5.646-6.214-11.729-11.376-20.786-11.646c-3.646-0.11-6.428-2.548-7.651-5.894
		c-3.277-8.957-10.838-14.686-16.144-22.098c-2.885-4.032-7.034-5.088-10.721-2.285c-7.309,5.558-15.901,7.939-24.186,11.099
		c-14.414,5.497-27.398,14.033-41.537,19.856c-10.936,4.504-21.366,9.761-31.822,15.119c-2.173,1.111-4.53,1.848-6.954,1.852
		c-5.19,0.009-9.102,2.242-12.695,5.889c-5.168,5.244-12.45,6.408-19.122,8.046c-12.903,3.161-25.219,7.722-37.254,13.192
		c-0.44,0.201-0.862,0.544-1.331,0.548c-14.775,0.114-27.857,8.024-42.223,9.452c-20.375,2.024-39.901,9.019-60.459,9.691
		c-2.645,0.087-5.293,0.663-7.835,1.404c-9.348,2.729-18.759,3.133-28.529,3.048c-11.705-0.102-23.484,1.044-35.243,1.557
		c-12.763,0.557-25.521-0.077-38.289,0.743c-7.119,0.457-14.053-3.844-21.353-2.954c-12.285,1.492-24.154-3.31-36.525-1.713
		c-6.045,0.781-12.221-1.842-18.59-1.87c-18.868-0.08-36.775-6.015-55.074-9.708c-10.838-2.188-21.308-6.136-32.434-6.903
		c-0.481-0.033-1.017-0.031-1.422-0.248c-15.804-8.475-33.692-10.729-50.427-16.471c-13.032-4.473-25.488-10.132-37.983-15.555
		c-11.345-4.92-23.308-7.454-34.697-11.896c-3.876-1.51-7.482-3.354-10.505-6.242c-2.734-2.609-6.131-3.946-9.74-4.438
		c-4.587-0.625-8.888-1.885-13.191-3.61c-6.043-2.423-9.643-0.505-13.334,4.71c-6.289,8.892-11.892,18.072-16.34,28.059
		c-3.359,7.542-6.068,15.199-8.183,23.163c-0.765,2.882-0.465,7.115-5.155,7.589c-9.171-14.497-18.342-28.994-27.515-43.491
		c2.619-44.082,28.697-73.883,60.864-99.978c0.916-0.801,2.01-1.952,3.11-1.625c12.684,3.793,26.446-2.572,39.164,6.019
		c7.116,4.807,16.093,8.165,25.124,10.423c8.549,2.138,14.967,9.354,23.65,12.196c12.931,4.233,24.957,10.717,37.063,16.899
		c0.649,0.332,1.349,0.557,2.077,0.558c15.938,0.008,29.066,8.783,43.38,13.872c11.049,3.928,21.775,9.609,34.188,6.624
		c1.162-0.279,2.553-0.263,3.563,0.315c10.762,6.131,22.917,4.09,34.397,5.965c1.454,0.238,2.914,0.498,4.067,1.383
		c6.223,4.761,13.45,4.938,20.744,4.48c4.173-0.261,8.051,0.075,11.976,1.813c4.865,2.154,10.026,1.457,14.851-0.36
		c5.097-1.92,9.859-1.926,14.577,0.875c4.386,2.604,8.908,2.906,13.914,1.679c9.938-2.438,20.217-1.837,30.25-1.435
		c14.307,0.573,28.401-2.023,42.593-1.67c16.779,0.419,32.576-6.003,49.111-6.338c13.025-0.267,25.624-3.449,38.591-4.387
		c14.869-1.072,29.423-6.254,43.63-11.349c9.229-3.309,18.274-7.116,28.073-8.545c1.93-0.28,3.563-1.465,5.211-2.457
		c6.676-4.021,13.657-6.92,21.547-7.856c10.128-1.203,16.724-9.219,24.815-14.227c6.646-4.113,12.656-8.652,21.021-8.197
		c4.152,0.227,6.983-3.184,10.116-5.228c9.41-6.141,20.685-9.375,28.411-18.16c1.272-1.45,3.108-2.76,4.983-2.754
		c8.31,0.021,14.953-4.14,22.206-7.418C1062.318,460.182,1072.725,459.574,1082.273,466.045z"/>
	<path fill="#FE43AD" d="M322.934,626.901c5.963-22.527,13.818-44.897,29.086-62.255c11.282-12.824,25.877-0.484,37.545,4.2
		c35.272,14.165,70.243,28.581,106.567,40.396c29.422,9.567,59.107,17.273,89.123,22.876c28.544,5.326,58.149,4.675,87.135,7.98
		c52.189,5.954,104.003,0.965,154.939-8.456c21.168-3.915,43.085-9.878,64.188-15.183c34.196-8.594,65.729-22.08,97.481-35.801
		c28.482-12.31,56.189-26.402,84.342-39.489c16.973-7.891,21.932,9.813,25.427,17.024c8.468,17.469,30.439,14.063,38.563,29.568
		c1.934,19.81,3.869,39.619,5.805,59.43c-4.783,6.528-8.61,14.352-18.649,13.775c-4.419-5.239-9.66-9.202-16.247-11.486
		c-4.382-1.52-6.938-4.979-8.076-9.541c-1.463-5.864-4.024-11.387-5.559-17.23c-0.88-3.361-2.941-4.764-6.348-4.498
		c-10.708,0.831-21.068,1.771-31.767,4.947c-12.939,3.845-24.001,11.794-37.643,14.145c-9.901,1.707-18.68,8.589-28.267,12.626
		c-12.095,5.095-24.896,7.646-37.074,12.262c-15.533,5.887-31.581,10.251-47.666,14.224c-15.132,3.737-29.769,10.032-45.781,9.795
		c-2.893-0.043-5.978,0.378-8.491,1.646c-12.428,6.276-26.564,4.495-39.29,8.504c-11.232,3.535-22.442,0.903-33.529,2.55
		c-10.919,1.623-21.957,2.232-32.929,3.18c-12.201,1.05-24.634,1.835-36.805,0.692c-14.225-1.337-28.688-2.467-42.588-1.228
		c-12.147,1.086-23.088-0.727-34.678-2.665c-13.015-2.177-26.387-2.479-39.627-3.225c-17.004-0.957-33.066-6.602-49.616-9.805
		c-7.8-1.511-15.347-4.316-23.411-4.496c-4.264-0.098-7.809-2.428-11.599-3.901c-13.926-5.412-29.091-6.469-42.804-13.084
		c-5.916-2.854-13.216-3.438-19.857-5.309c-12.93-3.639-24.937-10.07-38.401-12.06c-6.57-0.97-12.581-4.914-19.632-4.028
		c-1.388,0.174-2.806-0.651-4.062-1.397c-14.635-8.701-29.676-6.679-44.853-1.768c-4.382,1.417-8.501,5.36-13.499,1.563
		C323.905,636.558,323.42,631.729,322.934,626.901z"/>
	<path fill="#FD40A7" d="M324.391,641.385c13.725-3.839,27.054-11.295,41.855-7.416c26.975,7.067,53.7,15.074,80.617,22.365
		c42.648,11.555,84.845,25.781,128.189,33.526c58.372,10.428,117.648,11.116,177.204,8.745
		c65.277-2.599,128.05-16.61,189.911-34.789c44.534-13.086,87.247-32.267,131.287-47.207c10.479-3.557,26.055-5.459,26.055,13.979
		c0.003,18.236,21.096,16.639,26.229,29.641c3.513,3.929,2.82,8.645,1.925,13.08c-1.908,9.452-4.509,18.758-6.841,28.117
		c-0.837,3.355-2.371,6.564-5.533,8.18c-9.391,4.795-20.095,5.658-29.777,9.639c-3.9-1.989-4.247-5.75-4.13-9.354
		c0.296-9.06-3.068-17.03-6.995-24.816c-2.52-4.988-6.284-7.342-12.404-5.928c-12.338,2.85-24.077,6.881-34.416,14.397
		c-1.574,1.146-3.295,2.287-5.193,2.463c-14.958,1.381-27.578,9.712-41.293,14.581c-11.408,4.05-23.141,7.623-34.351,12.49
		c-11.285,4.9-23.543,7.018-35.393,10.086c-21.187,5.487-42.636,10.151-64.185,14c-15.38,2.747-31.288,2.299-46.377,7.185
		c-1.374,0.444-2.889,0.384-4.319,0.15c-16.024-2.616-31.479,1.97-47.153,3.745c-1.19,0.134-2.383,0.707-3.563,0.528
		c-23.747-3.577-47.622,0.856-71.384-1.158c-16.356-1.386-32.754-1.683-49.146-2.229c-2.419-0.082-4.836-0.247-7.171-0.896
		c-7.718-2.143-15.425-3.763-23.556-2.386c-3.562,0.603-7.313-0.204-10.747-1.182c-23.883-6.79-48.712-8.648-72.876-14.313
		c-18.848-4.419-36.613-12.156-55.405-15.912c-14.544-2.907-27.783-9.09-41.703-13.425c-16.021-4.987-31.964-10.539-47.676-16.56
		c-6.369-2.439-13.301-2.516-19.466-5.441c-8.037-5.924-20.282-24.493-22.247-33.726
		C324.373,648.159,324.381,644.771,324.391,641.385z"/>
	<path fill="#EF479F" d="M324.362,651.547c7.257,10.629,14.515,21.256,21.771,31.883c4.835,7.204,3.917,15.703,4.912,23.65
		c2.395,19.109,6.031,37.854,13,55.859c1.922,8.729,1.84,17.78,3.526,26.471c3.403,17.537,9.032,34.41,17.5,50.33
		c24.32,45.726,60.978,79.601,102.565,109.192c36.336,25.854,76.354,42.929,119.243,54.161c25.283,6.62,50.88,11.81,76.863,13.489
		c26.169,1.692,52.436,2.453,78.728-0.965c26.613-3.458,53.042-7.334,78.896-14.724c22.324-6.384,44.186-13.968,65.058-24.188
		c39.322-19.256,75.017-43.686,105.691-75.098c24.639-25.23,45.702-52.798,58.292-86.347c3.477-9.263,6.001-18.851,9.863-27.896
		c5.108-11.962,0.745-21.505-6.037-30.831c-0.851-1.168-2.045-2.054-2.868-3.264c-1.909-8.894,6.315-29.777,13.807-35.087
		c33.431-5.386,41.269-28.684,40.563-57.957c5.799-4.346,11.599-8.688,17.396-13.033c17.268,24.072,2.403,47.121-2.967,70.028
		c-18.588,79.317-50.6,150.947-110.923,209.108c-81.741,78.811-178.104,119.08-291.023,122.344
		c-128.999,3.729-242.179-33.458-333.386-127.723c-57.26-59.18-93.493-129.844-105.186-211.1
		C296.798,690.034,306.979,667.166,324.362,651.547z"/>
	<path fill="#FE48BB" d="M1082.273,466.045c-35.604-7.482-59.02,19.288-88.066,30.562c-28.796,11.176-53.434,31.196-84.898,36.799
		c-20.369,3.627-39.725,12.706-60.019,17.094c-20.819,4.5-42.156,7.027-63.396,9.052c-35.818,3.413-72.073,9.933-107.501,7.1
		c-24.472-1.957-49.791,1.428-74.757-8.691c-22.754-9.223-50.401-5.965-73.705-14.314c-48.152-17.256-94.65-39.076-142.313-57.791
		c-9.325-3.659-20.833-1.756-31.335-2.418c13.835-32.636,32.352-62.151,57.956-86.942c22.631-4.079,36.76,14.404,55.417,20.828
		c24.28,8.358,49.2,15.059,73.001,24.579c32.44,12.978,66.336,10.219,99.73,11.115c18.547,0.497,37.221-6.151,55.87-6.352
		c22.026-0.234,44.104,4.445,66.136,4.264c15.254-0.124,30.811-8.028,45.584-6.438c9.913,1.067,17.901-3.482,26.252-2.664
		c42.967,4.211,77.43-17.566,113.35-35.16c28.813-14.11,55.679-34.248,90.675-29.008
		C1058.26,405.217,1074.649,433.548,1082.273,466.045z"/>
	<path fill="#F43E9F" d="M362.082,764.567c-10.762-25.977-13.643-53.501-15.948-81.139c57.895,17.6,115.214,37.483,173.835,52.172
		c62.98,15.779,127.644,20.063,192.83,19.575c60.113-0.452,119.413-6.556,177.844-19.168c39.398-8.505,77.068-23.627,115.117-37.281
		c21.437-7.693,41.049-30.489,66.084-19.451c13.619,6.005,10.936,25.021,13.331,38.908c-4.347,11.596-8.693,23.19-13.042,34.786
		c-0.385,3.269-2.996,4.83-5.217,6.616c-5.227,4.203-11.76,6.713-15.864,12.405c-0.838,1.159-2.44,1.683-3.886,1.746
		c-5.461,0.239-10.307,1.669-14.421,5.604c-2.021,1.933-5.01,1.762-7.613,0.954c-4.59-1.421-8.262,0.139-12.258,2.409
		c-7.153,4.062-15.192,6.424-23.153,7.863c-7.756,1.4-15.432,4.072-23.521,3.446c-0.952-0.071,0.14-0.333-0.706,0.034
		c-13.844,6.019-28.911,6.833-43.35,10.31c-6.783,1.632-13.463,3.14-20.569,3.423c-7.581,0.3-15.086,2.546-22.492,4.403
		c-5.2,1.306-10.356,2.219-15.67,2.518c-17.285,0.974-34.431,2.906-51.344,6.796c-8.739,2.01-17.646,2.828-26.606,1.172
		c-2.626-0.485-5.328-0.716-7.93-0.137c-13.014,2.896-26.465,1.698-39.508,4.301c-2.852,0.568-5.811,0.836-8.633,0.041
		c-5.306-1.493-10.436,0.088-15.648,0.271c-13.248,0.465-26.634,3.654-39.823-0.99c-9.621-3.388-19.626-0.793-29.408-0.871
		c-5.98-0.049-11.926,0.261-17.926-0.487c-15.774-1.962-31.693-3.559-47.467-4.253c-16.363-0.721-32.39-3.706-48.65-4.859
		c-10.278-0.729-20.646-3.831-31.043-5.566c-2.64-0.439-5.036-1.264-7.688-0.324c-2.123,0.751-4.145,0.751-6.148-0.742
		c-6.73-5.017-14.293-6.541-22.447-4.668c-3.269,0.752-6.205-0.173-9.219-1.031c-8.162-2.325-16.393-4.092-24.963-2.938
		c-3.02,0.408-5.63-1.059-8.432-1.69c-6.543-1.479-12.352-5.61-19.396-5.302c-1.185,0.054-2.331-0.634-3.326-1.324
		C385.451,783.501,371.85,776.52,362.082,764.567z"/>
	<path fill="#ED3F9C" d="M362.082,764.567c19.014,13.597,37.483,28.521,61.5,32.229c17.785,2.745,35.816,3.868,53.646,6.37
		c26.771,3.758,53.346,9.289,80.213,11.886c36.805,3.56,73.864,4.431,110.713,7.615c55.874,4.833,110.854-2.312,166.271-8.038
		c58.583-6.055,115.699-18.317,172.676-31.718c23.247-5.467,47.035-12.019,65.031-29.941c23.892,17.338,11.003,38.623,3.172,56.21
		c-56.752,127.415-162.864,185.639-294.683,206.068c-91.606,14.199-180.122,1.312-260.595-44.027
		C439.146,925.653,371.21,866.646,362.082,764.567z"/>
	<path fill="#EA3C9A" d="M995.456,849.317c-11.453,54.248-53.889,74.995-92.88,97.462c-51.366,29.596-108.854,40.318-167.024,41.208
		c-35.632,0.546-71.489-4.143-107.335-12.295c-35.688-8.115-69.118-19.691-99.363-38.179
		c-23.826-14.563-46.092-33.376-61.438-57.947c-1.895-3.035-0.579-10.405,1.989-13.468c8.234-9.813,13.981-22.524,31.116-21.6
		c26.582,1.437,53.315-0.207,79.938,0.787c47.627,1.782,95.209,6.087,142.827,6.34c28.377,0.15,56.744-5.912,85.19-8.272
		c32.848-2.729,65.76-4.783,98.676-6.509c21.833-1.145,43.781-2.294,65.551-1.108C979.884,836.129,986.668,843.822,995.456,849.317z
		"/>
</g>
</svg>
