<?xml version="1.0" encoding="utf-8"?>
<!-- Generator: Adobe Illustrator 16.0.3, SVG Export Plug-In . SVG Version: 6.00 Build 0)  -->
<!DOCTYPE svg PUBLIC "-//W3C//DTD SVG 1.1//EN" "http://www.w3.org/Graphics/SVG/1.1/DTD/svg11.dtd">
<svg version="1.1" id="Layer_1" xmlns="http://www.w3.org/2000/svg" xmlns:xlink="http://www.w3.org/1999/xlink" x="0px" y="0px"
	 width="1600px" height="1248px" viewBox="-80 0 1600 1248" enable-background="new -80 0 1600 1248" xml:space="preserve">
<g>
	<path fill="#C3B9FE" d="M1279.047,893.843c-23.525-36.347-47.546-72.382-70.488-109.093
		c-108.246-173.198-216.188-346.583-324.323-519.851c-1.632-2.616-4.362-4.546-6.581-6.795c-0.002-0.542-0.006-1.083-0.006-1.623
		c-5.097-5.997-7.905-13.519-13.002-19.515c-0.002-0.541-0.004-1.081-0.005-1.622c-1.104-1.064-2.146-2.191-3.247-3.255
		c-0.544-1.625-1.086-3.25-1.632-4.874c-1.102-1.066-2.146-2.19-3.247-3.255c-0.002-0.541-0.002-1.082-0.004-1.623
		c-1.104-1.064-2.146-2.188-3.246-3.256c-0.544-1.625-1.088-3.248-1.632-4.873c-1.102-1.065-2.146-2.189-3.247-3.256
		c-0.545-1.625-1.088-3.249-1.631-4.873c-1.104-1.066-2.144-2.19-3.248-3.257c-2.72-4.661-93.109-137.165-101.116-150.66
		c-28.523-48.075,3.107-14.287-6.579-30.896c28.887,42.903,128.327,203.499,157.084,246.489c9.308,13.913,18.054,28.2,27.059,42.315
		c1.241,1.539,1.578,3.678,3.265,4.923l-0.016-0.016c3.479,6.171,6.009,12.952,11.487,17.835l-0.04-0.02
		c9.916,18.622,22.211,35.771,33.482,53.542c18.052,28.463,36.571,56.637,54.921,84.916c30.429,46.893,60.674,93.903,90.959,140.889
		c18.451,28.625,36.707,57.375,54.849,86.203c23.457,37.28,47.432,74.237,71.198,111.322c11.218,17.501,22.337,35.059,32.33,53.298
		C1274.61,873.253,1276.829,883.549,1279.047,893.843z"/>
	<polygon fill="#BFB4FE" points="608.211,176.426 708.117,15.481 710.929,24.247 687.262,66.201 	"/>
	<path fill="#B6AAFE" d="M712.42,21.266C684.318,76.366,631.23,171.27,602.918,226.26c-47.759,92.751-95.507,185.507-143.74,278.014
		c-38.367,73.585-77.863,146.584-116.099,220.238c-36.519,70.348-72.05,141.205-108.025,211.833
		c-15.196,29.833-30.422,59.65-45.635,89.477c-6.969-15.25-13.938-30.501-20.906-45.752c3.627-11.762,10.553-21.938,16.369-32.556
		c14.132-25.786,28.983-51.185,43.339-76.857c11.737-20.991,23.992-41.711,35.156-63.002c8.658-16.515,17.519-32.956,27.013-48.935
		c10.768-18.123,20.112-37.009,31.208-54.957c13.067-21.14,24.471-43.289,36.45-65.082c17.445-31.731,35.337-63.212,53.292-94.665
		c14.743-25.825,28.926-51.987,43.555-77.888c20.48-36.262,40.572-72.739,61.156-108.941c17.91-31.501,35.34-63.28,53.469-94.649
		c18.389-31.817,36.584-63.745,55.125-95.475c11.719-20.054,22.726-40.521,35.13-60.174c0.003-0.54,0.006-1.079,0.008-1.619
		c2.057-1.846,2.817-4.661,4.867-6.513c5.417-10.854,15.793-31.68,21.211-42.531C687.98,54.487,710.301,23.006,712.42,21.266z"/>
	<path fill="#BCB1FE" d="M1281.156,933.387c-1.045,8.354-3.521,21.103-5.592,29.265c-7.063,3.253-8.396-8.059-10.845-12.096
		c-6.876-11.331-13.265-22.957-19.797-34.49c-29.847-52.716-60.521-104.958-90.738-157.459
		c-22.93-39.844-45.778-79.753-69.267-119.29c-22.104-37.208-43.37-74.938-64.843-112.531
		c-20.128-35.236-40.81-70.15-61.115-105.281c-21.937-37.949-43.728-75.984-65.778-113.865
		c-19.871-34.135-39.678-68.308-59.494-102.473c-24.976-43.058-50.748-85.668-73.757-129.84c-1.685-3.233-5.516-6.803-0.911-10.787
		c15.754,24.824,31.509,49.647,47.264,74.473c13.543,20.185,26.268,40.896,39.375,61.351c0.738,1.637,1.871,3.002,3.086,4.308
		c0.747,1.544,1.853,2.882,2.616,4.418c0.513,1.586,1.423,2.927,2.616,4.089c1.059,1.34,1.81,2.846,2.427,4.422
		c0.417,1.266,1.12,2.367,1.967,3.394c0.424,0.529,0.761,1.11,1.073,1.705c0.556,1.242,1.479,2.211,2.417,3.173
		c1.137,1.353,1.929,2.899,2.563,4.533c0.48,1.691,1.596,3.065,2.364,4.62c0.228,0.692,0.419,1.389,0.606,2.091
		c3.118,6.762,6.554,13.312,12.06,18.523c0.401,0.676,0.679,1.397,0.839,2.165c8.408,16.356,18.188,31.921,27.746,47.592
		c18.695,30.652,37.447,61.271,56.076,91.968c16.813,27.705,34.026,55.17,51.007,82.776
		c35.957,58.461,72.14,116.784,107.706,175.486c20.046,33.082,40.332,66.02,60.379,99.099
		c27.042,44.628,53.936,89.349,81.554,133.617c6.146,9.852,10.371,20.809,17.744,29.893
		C1282.506,923.107,1281.761,928.547,1281.156,933.387z"/>
	<path fill="#BFB4FE" d="M159.192,941.011c-0.606-2.174-1.217-4.348-1.824-6.521c0-9.212,0-18.428,0-27.641
		c0.608-2.701,1.22-5.403,1.827-8.105c12.019-19.557,24.18-39.021,36.204-58.567c23.519-38.23,47.435-76.215,71.046-114.386
		c28.307-45.762,56.621-91.518,84.954-137.262c26.196-42.295,52.451-84.554,78.753-126.783
		c29.447-47.285,58.744-94.665,88.071-142.025c29.734-48.015,60.711-95.241,90.642-143.131
		c6.707-10.732,14.299-20.934,19.768-32.423c17.424-25.988,34.846-51.977,52.269-77.964c3.366,3.64,0.237,6.649-1.255,9.488
		c-4.125,7.847-8.447,15.595-12.813,23.312c-1.643,2.541-4.313,4.463-4.711,7.77c-0.299,0.741-0.707,1.412-1.218,2.022
		c-9.502,11.23-15.714,24.553-23.292,36.986c-22.914,37.606-44.701,75.89-66.627,114.069
		c-31.523,54.896-64.418,108.968-96.435,163.565c-25.717,43.854-51.992,87.388-77.755,131.217
		c-21.516,36.603-43.094,73.172-64.771,109.671c-17.942,30.212-35.975,60.391-53.888,90.619
		c-19.987,33.729-39.916,67.507-59.771,101.321c-15.604,26.576-31.477,53.004-47.119,79.563
		C168.681,940.173,165.756,945.205,159.192,941.011z"/>
	<path fill="#C0B5FE" d="M1282.506,920.919c-15.472-22.931-31.878-47.981-46.271-71.572
		c-118.647-194.501-236.925-389.228-355.273-583.913c-1.381-2.272-2.217-4.878-3.308-7.329c4.217-2.791,5.779,0.691,7.558,3.306
		c10.329,15.198,20.371,30.636,29.535,46.515c13.229,22.921,27.567,45.125,41.503,67.59c25.761,41.529,51.765,82.909,78.021,124.124
		c31.231,49.024,61.959,98.367,92.806,147.628c22.972,36.688,45.826,73.457,68.604,110.271
		c24.619,39.784,49.482,79.419,74.09,119.213c3.428,5.544,5.617,11.707,9.275,17.093c1.151,5.419,2.88,10.749,3.459,16.258
		C1282.79,912.797,1282.506,918.21,1282.506,920.919z"/>
	<path fill="#B1A5FE" d="M265.315,1115.456c-23.112-19.381-60.975-63.401-75.897-89.634c-1.243-6.12,0.621-11.28,3.379-16.904
		c8.546-17.432,17.924-34.427,26.633-51.739c15.376-30.567,30.524-61.271,47.135-91.157c14.954-26.911,27.846-54.847,42.546-81.873
		c6.415-11.795,11.579-24.527,18.306-36.01c6.248-10.666,8.929-23.11,17.602-32.608c5.609-6.145,7.636-14.875,11.139-22.454
		c8.301-17.947,18.165-35.077,26.867-52.813c9.962-20.3,20.961-40.169,32.004-59.958c6.053-10.847,11.47-22.013,16.723-33.255
		c6.537-13.987,14.044-27.418,21.95-40.681c4.962-8.324,8.114-17.634,12.665-26.272c13.242-25.129,27.51-49.762,39.808-75.334
		c15.484-32.198,33.451-63.058,49.299-95.056c11.397-23.012,24.28-45.336,35.805-68.294c17.364-34.597,36.479-68.233,54.55-102.438
		c13.752-26.027,26.937-52.359,41.438-77.992c7.568-13.604,15.137-27.212,22.703-40.818
		c-19.467,47.392-38.556,94.943-58.492,142.141c-25.934,61.396-52.559,122.498-78.854,183.741
		c-28.342,66.007-56.302,132.181-85.106,197.985c-15.993,36.538-34.438,72.021-49.873,108.782
		c-23.523,56.03-45.26,112.811-68.021,169.166c-12.654,31.33-22.111,64.796-39.854,92.991
		c-17.291,27.477-22.964,59.235-41.271,86.505c-15.627,23.276-19.543,54.306-29.569,81.563
		C257.234,1087.627,269.548,1111.797,265.315,1115.456z"/>
	<path fill="#B5A9FE" d="M759.02,64.54c27.53,48.946,54.614,98.152,82.673,146.799c123.678,214.43,247.517,428.772,371.615,642.96
		c20.173,34.824,41.947,68.723,62.983,103.046c-3.626,33.575-27.754,79.647-47.528,106.074
		c-6.905-38.988-22.493-88.223-38.913-122.897c-34.563-72.979-71.316-144.92-107.536-217.104
		c-62.68-124.914-125.74-249.633-188.443-374.536C841.739,245.04,789.882,141.057,737.982,37.096
		c-1.041-2.085-1.096-4.663-1.61-7.014c6.477,9.82,12.95,19.646,19.425,29.469c1.09,1.671,1.505,3.774,3.241,5.029L759.02,64.54z"/>
	<path fill="#ADA1FE" d="M850.165,1239.288c48.431-4.362,95.373-16.903,141.683-31.367c52.706-16.461,102.896-38.678,149.39-68.654
		c31.981-20.616,61.261-44.59,85.808-73.868c4.947-5.896,21.07-28.607,22.806-36.748c-5.688-1.63-10.083-1.676-15.659-9.813
		c-11.502-16.795-17.891-36.189-27.704-53.896c-7.774-14.021-13.837-29.364-21.854-43.242
		c-7.334-12.691-12.916-26.155-19.576-39.062c-12.383-23.996-22.863-48.963-36.129-72.595c-3.667-6.531-7.831-12.854-10.849-19.852
		c-6.826-15.829-15.288-30.871-21.938-46.865c-5.027-12.102-10.822-24.166-17.917-35.389c-7.261-11.483-11.104-24.633-17.624-36.402
		c-5.106-9.223-11.229-17.966-14.914-27.856c-8.037-21.583-20.34-41.095-30.438-61.612c-11.665-23.705-23.404-47.508-35.729-70.957
		c-19.233-36.602-36.544-74.225-55.319-111.08c-14.467-28.402-28.103-57.219-43.181-85.318
		c-13.543-25.239-24.844-51.596-38.319-76.92c-17.526-32.938-33.879-66.518-50.352-100.014
		c-14.202-28.882-29.897-56.995-44.234-85.805c-3.559-7.155-8.645-13.889-8.599-22.48c-1.291-5.984-5.551-10.398-8.38-15.557
		c-2.563-4.67-5.439-10.36-11.595-9.911c-6.285,0.458-8.814,6.404-11.422,11.457c-0.745,1.446-1.138,3.021-1.136,4.675
		c0.736,7.135-2.418,13.206-5.412,19.256c-9.834,19.851-18.007,40.444-27.313,60.537c-11.361,24.531-20.621,50.027-32.029,74.511
		c-16.869,36.204-31.584,73.324-48.205,109.604c-4.695,10.254-6.444,21.456-12.988,31.218
		c-9.911,14.785-13.588,32.663-20.811,48.875c-3.721,8.354-8.703,15.983-12.158,24.534c-5.246,12.988-9.289,26.577-15.627,38.966
		c-6.297,12.309-9.68,25.651-15.864,37.895c-5.111,10.115-7.826,21.521-13.603,31.033c-7.703,12.686-9.642,27.488-17.215,40.037
		c-5.107,8.464-8.526,17.631-9.375,27.646c-0.152,1.803-1.166,3.636-2.43,5.085c-11.555,13.268-17.038,29.78-24.115,45.402
		c-9.721,21.458-16.34,44.17-26.821,65.388c-5.938,12.022-9.05,25.389-15.847,37.163c-1.47,2.542-3.646,5.105-3.771,8.03
		c-0.651,15.264-11.991,26.293-15.635,40.295c-1.774,6.817-8.248,11.304-9.639,17.534c-2.201,9.874-8.592,17.878-10.351,27.878
		c-1.084,6.166-3.08,12.589-9.184,16.516c-2.29,1.473-3.304,4.433-3.646,7.087c-1.185,9.211-4.791,17.655-7.353,26.352
		c-2.403,8.148-4.711,15.484-9.897,22.152c-2.808,3.61-4.069,8.099-5.611,12.472c-2.381,6.752-3.988,14.112-8.446,19.803
		c-6.106,7.792-9.577,16.729-11.785,25.969c-1.768,7.4-3.545,14.63-6.671,21.598c-3.77,8.399-9.865,15.453-13.802,23.557
		c-4.125,8.495-9.008,16.724-11.611,26.077c-1.604,5.768-2.156,11.753-5.688,17.414c-5.685,9.111-12.499,18.609-9.572,30.734
		c0.254,1.053-0.604,2.019-1.129,2.972c-4.102,7.438-6.05,16.122-14.1,21.206c-3.012,1.901-27.926-25.166-27.682-21.066
		c0.598,3.768,41.038,49.287,43.717,51.572c19.396,16.543,25.374,19.521,47.303,32.52c33.844,20.055,69.246,36.838,106.322,50.074
		c30.092,10.742,60.515,20.297,91.763,27.148c46.293,10.146,92.725,18.709,140.439,18.54c0,0,76.425,0.586,101.89,0.003
		C777.335,1243.186,825.954,1241.47,850.165,1239.288z"/>
	<path fill="#C5BBFE" d="M628.633,144.165c-18.298,31.141-35.974,62.668-54.994,93.36
		c-135.546,218.723-271.359,437.28-407.223,655.807c-1.479,2.38-4.773,3.632-7.221,5.411c4.678-16.863,9.354-33.729,14.028-50.594
		c9.287-13.902,16.953-28.788,26.17-42.75c33.224-50.322,65.456-101.288,98.516-151.722c29.003-44.248,57.521-88.815,86.264-133.234
		c24.677-38.137,49.214-76.363,73.882-114.507c1.338-2.067,1.931-4.476,3.307-6.5c4.907-7.543,9.815-15.085,14.726-22.627
		c1.586-1.285,1.898-3.414,3.223-4.871C529.083,296.015,578.859,220.089,628.633,144.165z"/>
	<path fill="#C8BFFE" d="M1272.392,862.96c-27.864-41.979-56.34-83.565-83.478-126.007
		c-83.057-129.891-165.617-260.093-248.25-390.252c-2.675-4.211-4.039-9.253-6.016-13.907
		c71.996,109.474,144.639,218.529,215.732,328.583c39.619,61.331,84.291,119.551,116.551,185.504
		C1269.398,851.925,1270.601,857.587,1272.392,862.96z"/>
	<path fill="#CAC1FE" d="M461.36,399.437c-24.923,40.703-49.229,81.801-74.891,122.032
		c-66.896,104.878-134.353,209.402-201.741,313.966c-3.055,4.74-7.632,8.499-11.503,12.714
		c14.384-40.433,41.901-73.119,64.816-108.399C311.95,625.969,386.846,512.827,461.36,399.437z"/>
	<path fill="#C8BFFE" d="M934.691,332.813c-3.83-5.945-7.659-11.89-11.487-17.835C927.032,320.922,930.861,326.867,934.691,332.813z
		"/>
	<path fill="#BCB1FE" d="M759.038,64.58c-1.081-1.678-2.161-3.353-3.241-5.028C756.877,61.228,757.957,62.902,759.038,64.58z"/>
	<path fill="#C8BFFE" d="M923.22,314.993c-1.089-1.641-2.177-3.283-3.267-4.923C921.043,311.709,922.132,313.352,923.22,314.993z"/>
	<path fill="#CAC1FE" d="M479.309,371.938c-1.073,1.623-2.148,3.247-3.223,4.871C477.159,375.187,478.234,373.563,479.309,371.938z"
		/>
	<path fill="#B9AEFE" d="M659.773,106.891c-42.845,77.008-85.564,154.085-128.563,231.009
		c-52.373,93.696-104.892,187.312-157.508,280.874c-56.495,100.458-113.115,200.846-169.832,301.18
		c-11.438,20.234-23.555,40.087-35.358,60.116c-3.106-13.021-6.214-26.038-9.32-39.059c22.143-18.491,31.235-45.77,45.327-69.393
		C331.363,659.01,457.18,445.791,583.475,232.856C608.518,190.637,634.32,148.868,659.773,106.891z"/>
	<path fill="#C0B5FE" d="M864.646,236.966c4.334,6.505,8.668,13.01,13.002,19.515C873.314,249.977,868.98,243.472,864.646,236.966z"
		/>
	<path fill="#C0B5FE" d="M843.509,202.822c1.083,1.086,2.166,2.171,3.248,3.257C845.675,204.993,844.592,203.908,843.509,202.822z"
		/>
	<path fill="#C0B5FE" d="M848.388,210.952c1.081,1.085,2.164,2.171,3.247,3.256C850.552,213.123,849.469,212.037,848.388,210.952z"
		/>
	<path fill="#C0B5FE" d="M853.268,219.081c1.084,1.084,2.164,2.17,3.245,3.256C855.432,221.251,854.352,220.165,853.268,219.081z"/>
	<path fill="#C0B5FE" d="M856.518,223.96c1.082,1.085,2.166,2.17,3.246,3.255C858.683,226.13,857.6,225.045,856.518,223.96z"/>
	<path fill="#C0B5FE" d="M861.396,232.089c1.082,1.085,2.164,2.169,3.246,3.255C863.561,234.258,862.479,233.174,861.396,232.089z"
		/>
	<path fill="#B9AEFE" d="M664.648,98.759c-1.623,2.17-3.246,4.341-4.867,6.513C661.402,103.1,663.025,100.929,664.648,98.759z"/>
</g>
</svg>
