<?xml version="1.0" encoding="utf-8"?>
<!-- Generator: Adobe Illustrator 16.0.3, SVG Export Plug-In . SVG Version: 6.00 Build 0)  -->
<!DOCTYPE svg PUBLIC "-//W3C//DTD SVG 1.1//EN" "http://www.w3.org/Graphics/SVG/1.1/DTD/svg11.dtd">
<svg version="1.1"
	 id="Layer_1" xmlns:dc="http://purl.org/dc/elements/1.1/" xmlns:cc="http://creativecommons.org/ns#" xmlns:rdf="http://www.w3.org/1999/02/22-rdf-syntax-ns#" xmlns:svg="http://www.w3.org/2000/svg" xmlns:sodipodi="http://sodipodi.sourceforge.net/DTD/sodipodi-0.dtd" xmlns:inkscape="http://www.inkscape.org/namespaces/inkscape" inkscape:version="1.0 (4035a4fb49, 2020-05-01)" sodipodi:docname="notification_clippy.svg"
	 xmlns="http://www.w3.org/2000/svg" xmlns:xlink="http://www.w3.org/1999/xlink" x="0px" y="0px" width="105.0996094px"
	 height="105.0996094px" viewBox="0.0002441 0.0002441 105.0996094 105.0996094"
	 enable-background="new 0.0002441 0.0002441 105.0996094 105.0996094" xml:space="preserve">
<sodipodi:namedview  inkscape:cy="52.549999" inkscape:cx="31.799999" inkscape:zoom="9.590866" showgrid="false" guidetolerance="10" gridtolerance="10" objecttolerance="10" borderopacity="1" pagecolor="#ffffff" bordercolor="#666666" id="namedview95" inkscape:current-layer="Layer_1" inkscape:window-maximized="1" inkscape:window-y="-8" inkscape:window-x="-8" inkscape:window-height="1377" inkscape:window-width="2560" inkscape:pageshadow="2" inkscape:pageopacity="0" inkscape:document-rotation="0" inkscape:pagecheckerboard="true">
	</sodipodi:namedview>
<path id="path4" fill="#FFFFFF" d="M9.5129395,51.5002441c-1.6005859,9.3994141,3,29.7001953,4.7001953,34.2001953
	c3,7.8994141,5.7998047,16.0996094,16.1992188,18.5c10.4003906,2.3994141,19.2001953-0.5,22.5-5.6005859
	c6.9003906-10.3994141,6.2001953-17.7998047,4.7001953-23.2998047s-2.8994141-9.0996094,0.5-15.2001953
	c3.4003906-6.0996094-0.7001953-8,0.7998047-12.0996094c1.5-4.1005859,5.2001953-6.5,5.1005859-8.2998047
	c-0.1005859-1.8007813-3.1005859-3.1005859-4.2998047-5c-1.2001953-1.9003906,1.2998047-5.1005859,1.7998047-7.5
	c0.5-2.4003906,0-11.7001953-7-17.9003906c-4.7001953-4.0996094-8.9003906-9.2998047-22.2998047-9.2998047
	c-5.7001953,0-13.6005859,3-18.8007813,8.2001953c-5.1992188,5.1992188-6,13-5.3994141,15.6992188
	c0.5996094,2.7001953-7.2001953-0.5-7.4003906,3.3007813c-0.2001953,3.7998047-1.0996094,16,1.5,19.1992188
	C6.4123535,51.5998535,9.5129395,51.5002441,9.5129395,51.5002441z"/>
<path id="path6" fill="#404040" d="M33.6125488,39.0002441c-0.7998047,1.7998047-2,11.2998047,7.2998047,13.7998047
	c9.3007813,2.5,13.1005859-4.9003906,13.6005859-10.4003906s-6.9003906-4.8994141-10.6005859-5.0996094
	C40.2131348,37.0998535,34.8127441,36.3996582,33.6125488,39.0002441z"/>
<path id="path8" fill="#404040" d="M8.6125488,30.8996582c0,0-2.2001953,5.1005859-2.2001953,6.3007813
	c0,1.1992188,0.7001953,6,1.8007813,7.3994141c1.0996094,1.4003906,7,3.4003906,7.5,3.4003906s9.2998047-0.2001953,12-8.2998047
	c2.6992188-8.1005859-17.2001953-9.6005859-17.2001953-9.6005859L8.6125488,30.8996582z"/>
<path id="path10" d="M54.0129395,29.5998535c10-16.8994141-30-22.5-40.7998047-11.5c-2.6005859,2.7001953,2.5996094,15.4003906,7,11
	c0.5-0.7998047,0.6992188-1.5,1.2998047-2.3994141c4-6.3007813,7.0996094-6.4003906,13.5-5.8007813
	c9.0996094-0.0996094,10.0996094,0.3007813,14.7998047,9.2001953
	C50.2131348,30.8996582,53.7131348,29.8996582,54.0129395,29.5998535z"/>
<path id="path12" fill="#ED6B21" d="M24.0129395,94.2004395L24.0129395,94.2004395
	c-8.4003906-13.3007813-10.7001953-30.6005859-9.5-46c0.0996094-1.2001953,3.7001953-0.2001953,4.5996094-0.1005859
	c-0.5996094,13.7001953,0.5,45.9003906,17.7998047,48.1005859c4.3007813,0.1992188,8.2001953-2.3007813,9.9003906-6.3007813
	c3.5996094-12-5.5996094-26.5996094,4.9003906-36.8994141l0,0c1.8994141-2.1005859,5.3994141,0.5,3.5996094,2.7998047
	s-2.9003906,3.5996094-3.5,5.9003906c-3.0996094,9.1992188,2.7998047,18.8994141-0.0996094,28.0996094
	c-2.9003906,9.2001953-16.1005859,14.2998047-24.3007813,7.7001953l0,0"/>
<path id="path16" fill="#B6D2FB" d="M24.9123535,95.0998535"/>
<path id="path18" fill="#B6D2FB" d="M26.5129395,96.7004395"/>
<path id="path20" fill="#B6D2FB" d="M39.0129395,17.2004395"/>
<path id="path22" fill="#B6D2FB" d="M38.4123535,17.0002441c0-0.1005859,0-0.1005859-0.0996094-0.1005859
	C38.4123535,16.8996582,38.4123535,16.8996582,38.4123535,17.0002441z"/>
<path id="path24" fill="#ED6B21" d="M26.5129395,74.3000488c-0.7998047-2.9003906-4.1005859-22,2.5996094-18.0996094
	c1.9003906,2.1992188,0.1005859,5.7998047,0.6005859,8.5c0.5996094,4.1992188,0.1992188,10.5996094,4.6992188,12.5
	c6.7001953,0.5,3-8.6005859,2.9003906-12.4003906s-0.2001953-6.7998047-0.2001953-10.0996094
	c0.1005859-0.9003906,0-1.8007813-0.2998047-2.6005859c3.0996094,1.7998047,5.0996094,1.7001953,8.9003906,2.1005859
	c-6.5,0.7998047-0.4003906,17.7998047-3.3007813,22.8994141C38.9123535,85.0002441,28.1125488,82.0002441,26.5129395,74.3000488z"/>
<path id="path30" fill="#ED6B21" d="M41.9123535,33.2004395l2.9003906,1.2998047l1.7001953,1.0996094
	c-0.2998047-0.0996094-0.6005859,0.2001953-0.7001953,0.5c0,0.1005859,0,0.1005859,0,0.2001953
	c-0.2001953,1.0996094-0.2001953,1.0996094-1.2998047,0.7998047l-3-0.5996094h-0.6005859L41.9123535,33.2004395z"/>
<path id="path34" fill="#909097" d="M46.9123535,35.8996582l0.6005859,0.6005859L46.9123535,35.8996582z"/>
<path id="path36" fill="#909097" d="M48.5129395,36.8000488"/>
<path id="path38" fill="#909097" d="M47.6125488,36.5002441l0.6005859,0.2998047L47.6125488,36.5002441z"/>
<path id="path40" fill="#909097" d="M50.1125488,36.5998535l0.2998047-0.2001953L50.1125488,36.5998535z"/>
<path id="path42" fill="#909097" d="M50.9123535,33.0998535"/>
<path id="path44" fill="#909097" d="M50.9123535,35.7004395l0.2001953-0.2001953L50.9123535,35.7004395z"/>
<path id="path46" fill="#909097" d="M49.6125488,36.8000488"/>
<path id="path48" fill="#90BDFE" d="M42.2131348,25.8996582c0,0.1005859,0,0.1005859,0.0996094,0.2001953
	C42.2131348,26.0002441,42.2131348,26.0002441,42.2131348,25.8996582z"/>
<path id="path50" fill="#90BDFE" d="M42.0129395,25.3996582"/>
<path id="path52" fill="#909097" d="M30.5129395,24.0002441"/>
<path id="path54" fill="#909097" d="M30.6125488,25.5998535"/>
<path id="path56" fill="#909097" d="M51.2131348,35.0998535"/>
<path id="path58" fill="#909097" d="M26.7131348,26.8996582"/>
<path id="path64" fill="#909097" d="M22.0129395,46.5002441l1.3994141-0.6005859l-0.2998047,0.4003906h-1.0996094V46.5002441z"/>
<path id="path66" fill="#B6D2FB" d="M19.5129395,67.3000488c0.0996094,0.0996094,0.0996094,0.2001953,0.0996094,0.2998047
	C19.6125488,67.5002441,19.6125488,67.3996582,19.5129395,67.3000488z"/>
<path id="path68" fill="#909097" d="M23.4123535,45.8996582l0.8007813-0.3994141L23.4123535,45.8996582z"/>
<path id="path70" fill="#B6D2FB" d="M26.2131348,73.2004395"/>
<path id="path72" fill="#B6D2FB" d="M26.7131348,42.0002441"/>
<path id="path74" fill="#B6D2FB" d="M26.1125488,72.5998535"/>
<path id="path76" fill="#B6D2FB" d="M26.8127441,41.5002441"/>
<path id="path78" fill="#B6D2FB" d="M26.9123535,39.3996582"/>
<path id="path80" fill="#B6D2FB" d="M22.9123535,46.3996582"/>
<path id="path82" fill="#B6D2FB" d="M26.5129395,74.3000488"/>
<path id="path84" fill="#B6D2FB" d="M42.9123535,75.3000488"/>
<path id="path88" fill="#4E595F" d="M53.4123535,30.0998535c7-20-29.5-19.8994141-40.3994141-11.7998047
	c4.5-10.2998047,19.5-15.5996094,29.5996094-11C50.2131348,11.3996582,62.5129395,23.0998535,53.4123535,30.0998535z"/>
<path id="path917" fill="#4E595F" d="M53.592041,29.7619629c0-0.0361328,0.0927734-0.3779297,0.2070313-0.7597656
	c0.734375-2.4619141,0.6787109-5.2919922-0.1416016-7.3046875c-0.9570313-2.3457031-3.125-4.4404297-6.0546875-5.8496094
	c-2.5761719-1.2392578-5.828125-2.0703125-9.859375-2.5195313c-1.8105469-0.2011719-7.265625-0.1708984-9.2802734,0.0517578
	c-6.2041016,0.6865234-11.3222656,2.1865234-14.5957031,4.2783203c-0.3144531,0.2001953-0.5869141,0.3496094-0.6064453,0.3310547
	c-0.0732422-0.0742188,0.6416016-1.3554688,1.2949219-2.3193359c3.2890625-4.8515625,8.9970703-8.3623047,15.5673828-9.5771484
	c3.6533203-0.6748047,7.4414063-0.4648438,10.6855469,0.5927734c1.4404297,0.4697266,2.4560547,0.9863281,4.1289063,2.1025391
	c4.9238281,3.2841797,8.8818359,7.4814453,10.6416016,11.2841797c1.2851563,2.7763672,1.2929688,5.4375,0.0224609,7.5351563
	C55.0158691,28.5744629,53.592041,30.1008301,53.592041,29.7619629z"/>
<path id="path919_2_" stroke="#DA3490" stroke-miterlimit="10" d="M22.8937988,25.2687988l-2.6953125,1.7880859l-0.53125,1.3759766
	c-0.3994141,1.0351563-0.5429688,1.9277344-0.7021484,1.9707031c-0.40625,0.109375-1.2509766-0.4804688-1.6298828-0.6386719
	c-1.1308594-0.4726563-2.3837891-1.9267578-3.3095703-3.8417969c-1.0439453-2.1591797-1.4599609-3.8642578-1.3896484-5.6933594
	c0.0556641-1.4755859,0.2167969-1.78125,1.3037109-2.4775391c4.5292969-2.9003906,12.7666016-4.6875,20.6230469-4.4746094
	c5.3085938,0.1435547,9.4082031,0.9824219,12.8701172,2.6337891c3.8417969,1.8330078,6.0810547,4.4492188,6.6748047,7.8017578
	c0.2519531,1.4257813,0.0761719,3.5966797-0.4326172,5.3515625c-0.2148438,0.7392578-0.2294922,0.7587891-0.6445313,0.8701172
	c-1.3808594,0.3720703-2.4707031,0.4921875-2.90625,0.3193359c-0.1015625-0.0400391-0.6328125-0.8916016-1.1806641-1.8925781
	c-0.5566406-1.0166016-1.5400391-1.7080078-1.9013672-2.2617188c-0.3574219-0.546875-1.2041016-1.0097656-1.3046875-1.2685547
	c-0.6582031-1.671875-1.3339844-1.7519531-3.0244141-3.3291016c-1.1435547-1.0673828-1.3710938-1.796875-2.4130859-2.2958984
	c-2.0380859-0.9765625-2.0019531-0.53125-4.375-0.53125c-3.6552734,0-3-0.09375-7.1875,1.6875
	c-0.390625,0.390625-2.0664063,0.7949219-2.25,1.0507813l-1.3251953,1.0039063"/>
<path id="path911" fill="#ED6B21" d="M34.3547363,100.3430176c-1.71875-0.2587891-3.0976563-0.6767578-4.4628906-1.3496094
	c-1.3769531-0.6796875-2.1230469-1.2509766-4.0537109-3.1035156c-1.6113281-1.5449219-1.8173828-1.7861328-2.4814453-2.8896484
	c-5.8740234-9.7744141-9.0693359-22.8789063-9.0722656-37.2177734c-0.0009766-2.1455078,0.1699219-7.1689453,0.2460938-7.2626953
	c0.0078125-0.0087891,0.4355469,0.0273438,0.9521484,0.0810547c0.8583984,0.0888672,2.7099609-0.0087891,3.3359375-0.1757813
	c0.2070313-0.0556641,0.2089844-0.0039063,0.2148438,5.6054688c0.0048828,4.2871094,0.0498047,6.2568359,0.1855469,8.1123047
	c1.4599609,19.9248047,6.7753906,31.2158203,15.8916016,33.7578125c0.8867188,0.2470703,1.2021484,0.2822266,2.4765625,0.2802734
	c1.1875-0.0019531,1.6240234-0.046875,2.3457031-0.2412109c3.6591797-0.9853516,6.4794922-3.8125,7.2441406-7.2617188
	c0.3466797-1.5673828,0.4677734-2.6113281,0.5410156-4.6914063c0.0751953-2.1435547-0.0527344-4.1455078-0.5927734-9.2773438
	c-0.4794922-4.5576172-0.65625-7.3710938-0.5683594-9.0214844c0.2910156-5.4179688,1.7158203-9.0244141,4.8320313-12.2275391
	c0.7294922-0.75,0.9814453-0.9423828,1.4042969-1.0673828c0.6601563-0.1962891,1.1738281-0.1132813,1.8652344,0.3007813
	c0.7275391,0.4365234,1.1845703,1.2705078,1.0791016,1.9736328c-0.0800781,0.5332031-0.3037109,0.8916016-1.6699219,2.6738281
	c-1.2207031,1.5908203-1.9130859,2.9404297-2.4091797,4.6923828c-0.6640625,2.3427734-0.7265625,2.8681641-0.7197266,6.0517578
	c0.0058594,3.0429688,0.0126953,3.1152344,0.7216797,7.8203125c0.7041016,4.6787109,0.7314453,4.9746094,0.7314453,7.9238281
	c-0.0009766,2.9707031-0.0830078,3.6972656-0.6347656,5.6035156c-1.3007813,4.5029297-5.1855469,8.3242188-10.2441406,10.0791016
	c-1.8017578,0.625-2.8486328,0.8027344-4.96875,0.8427734C35.5119629,100.3742676,34.5266113,100.3684082,34.3547363,100.3430176z"
	/>
<path id="path913" fill="#ED6B21" d="M34.6691895,81.6242676c-1.9755859-0.1962891-3.8457031-1.0898438-5.4091797-2.5839844
	c-1.8496094-1.7695313-2.6152344-3.5878906-3.3378906-7.9306641c-1.2060547-7.2529297-1.1484375-12.6376953,0.1542969-14.5400391
	c0.5751953-0.8388672,1.4707031-1.03125,2.5351563-0.5439453c0.5058594,0.2314453,0.5898438,0.3203125,0.9042969,0.9599609
	c0.3007813,0.6113281,0.3525391,0.8339844,0.3896484,1.6835938c0.0244141,0.5488281-0.0371094,1.7148438-0.1396484,2.6474609
	c-0.2050781,1.8720703-0.1845703,2.6591797,0.1513672,5.9345703c0.4521484,4.40625,0.8808594,6.1699219,1.8876953,7.7636719
	c0.5058594,0.8007813,1.3857422,1.6337891,2.1181641,2.0048828c0.4716797,0.2382813,0.6152344,0.2617188,1.3212891,0.2138672
	c2.3544922-0.1611328,3.3652344-1.6855469,3.1962891-4.8183594c-0.0341797-0.6318359-0.2333984-2.1347656-0.4414063-3.3388672
	c-0.6796875-3.9228516-0.6894531-4.0849609-0.8242188-13.8671875c-0.0175781-1.2617188-0.0654297-2.375-0.1064453-2.4736328
	c-0.0585938-0.1396484,0.125-0.0917969,0.8476563,0.2216797c1.9189453,0.8320313,3.9365234,1.3759766,5.6787109,1.5302734
	l0.7949219,0.0703125l-0.4140625,0.4140625c-0.5273438,0.5263672-0.9570313,1.4541016-1.1962891,2.5830078
	c-0.2949219,1.390625-0.2509766,5.09375,0.1152344,9.5400391c0.2382813,2.9052734,0.2822266,3.9316406,0.2402344,5.6826172
	c-0.0585938,2.5-0.2060547,3.2197266-0.9570313,4.6748047C40.6193848,80.4689941,37.9553223,81.9494629,34.6691895,81.6242676z"/>
<path id="path929" fill="#ED6B21" d="M44.9377441,36.3859863c-0.2578125-0.0439453-1.2109375-0.1640625-2.1181641-0.265625
	l-1.6494141-0.1855469l0.0654297-0.2675781c0.0351563-0.1484375,0.2050781-0.7285156,0.3779297-1.2910156
	c0.2880859-0.9414063,0.3300781-1.0166016,0.5410156-0.9580078c0.5576172,0.1533203,2.1787109,1.0390625,2.9658203,1.6201172
	c0.7402344,0.546875,0.8457031,0.6611328,0.7558594,0.8291016c-0.0576172,0.1074219-0.1044922,0.2919922-0.1044922,0.4101563
	C45.7717285,36.5109863,45.7102051,36.5197754,44.9377441,36.3859863z"/>
<path fill="#FFFFFF" d="M15.592041,33.8000488c0-0.4638672-3.2890625-0.9091797-4.8232422,0
	c-1.2294922,0.7294922-1.90625,4.8945313-1.90625,5.6347656c0,0,0.6328125-2.3535156,3.4375-4.1972656
	C14.5500488,33.7590332,15.592041,33.8000488,15.592041,33.8000488z"/>
<path fill="#FFFFFF" d="M42.3771973,39.9631348c0-0.4648438-3.2880859-0.9101563-4.8222656,0
	c-1.2294922,0.7285156-1.90625,4.8945313-1.90625,5.6347656c0,0,0.6318359-2.3535156,3.4375-4.1972656
	C41.3361816,39.9211426,42.3771973,39.9631348,42.3771973,39.9631348z"/>
<path id="path28" fill="#ED6B21" d="M23.0129395,32.2004395c-1.5,0.2998047-2.9003906-1.1005859-4.2001953-1.4003906l1.5-3.9003906
	c1.9003906,0,3.8378906-0.6552734,5.7373047-0.2548828C24.8508301,27.8449707,23.7131348,30.7004395,23.0129395,32.2004395z"/>
<path id="path86" d="M58.8127441,39.5002441c-6.2998047-1.7001953-12.7998047-3.2998047-19.2998047-3.6005859
	c-3.2001953,0.3007813-6.2998047,1-9.4003906-0.2998047c-6.2998047-3.3994141-13.2001953-6.5-20.5-6.2001953
	c-1.2001953,0-2.2998047-0.0996094-3.5-0.2998047c-0.3994141,1.4003906-0.0996094,0.1005859-0.5996094,2
	c0.2998047,0.7001953,0.5,1.4003906,0.5996094,2.1005859c-0.8994141,4.2998047-0.7998047,10,3.1005859,12.8994141
	c4.7998047,3.7998047,11.7998047,3.2001953,15.8994141-1.2998047c0.7998047-0.7998047,1.2998047-1.7998047,2-2.5996094
	c0.7001953-0.8007813,1.6005859-3.1005859,3.2001953-2.9003906c1.2001953,0.2001953,2.0996094,1.2001953,2.0996094,2.4003906
	c0.3007813,3.7998047,1,8.3994141,4.4003906,10.6992188c8.4003906,4.1005859,15,2.3007813,18-7
	c0.7001953-1.5996094,2.0996094-2.7998047,3.7998047-3.0996094C59.1125488,41.8996582,58.8127441,40.2004395,58.8127441,39.5002441z
	 M27.1125488,38.3996582c-1.2001953,4.6005859-5.5996094,8.8007813-10.5,8.9003906
	c-4.8994141,0.0996094-9.0996094-2.0996094-9.5-6.5996094c-0.3994141-4.5,0.7001953-9.3007813,4.7001953-9.8007813
	S27.3127441,32.8996582,27.1125488,38.3996582z M53.6125488,43.5002441c-0.3994141,5-4.5996094,10.2001953-10,9.2001953
	c-3.8994141-0.6005859-8.2998047-2.7001953-9.2001953-6.8007813c-0.8994141-4.0996094-0.7998047-8.1992188,5.2001953-8.1992188
	C43.0129395,37.7004395,53.6125488,37.5002441,53.6125488,43.5002441z"/>
<path id="path14" fill="#ED6B21" d="M42.2131348,25.8996582c-1.9003906-4.6992188-8.4003906-6.5-12.5-3.5996094l-0.9003906,1
	c-1.5-0.7001953-3.0996094-1.2998047-4.7001953-1.7998047c3.9003906-5.7998047,12.2001953-6.5,17.9003906-3l2.5,2.3994141l0,0
	c2.0996094,2.6005859,3.0996094,5.9003906,2.7998047,9.2001953c-1.5996094-0.7998047-3.2001953-1.3994141-4.9003906-1.7998047
	c0.1005859,0,0.3007813,0,0.3007813-0.0996094C42.6125488,27.3996582,42.4123535,26.7004395,42.2131348,25.8996582z"/>
<path id="path90" fill="#4E595F" d="M24.1125488,21.5002441c2.5,0.7001953,6.9003906,0.2998047,6.5,4
	c-0.3994141,3.7001953-4,1.2001953-6,1.0996094C15.2131348,29.0998535,14.7131348,21.0002441,24.1125488,21.5002441z"/>
<path id="path92" fill="#4E595F" d="M42.1125488,28.0002441c3.4003906,0.7998047,11.2001953,3.5996094,9.2998047,8
	c-1.8994141,4.3994141-6.2998047-2.4003906-9.6992188-2.7001953C38.3127441,33.0002441,37.4123535,26.8000488,42.1125488,28.0002441
	z"/>
</svg>
