<?xml version="1.0" encoding="utf-8"?>
<!-- Generator: Adobe Illustrator 16.0.3, SVG Export Plug-In . SVG Version: 6.00 Build 0)  -->
<!DOCTYPE svg PUBLIC "-//W3C//DTD SVG 1.1//EN" "http://www.w3.org/Graphics/SVG/1.1/DTD/svg11.dtd">
<svg version="1.1" id="Layer_1" xmlns="http://www.w3.org/2000/svg" xmlns:xlink="http://www.w3.org/1999/xlink" x="0px" y="0px"
	 width="1280px" height="1280px" viewBox="0 0 1280 1280" enable-background="new 0 0 1280 1280" xml:space="preserve">
<g>
	<polygon fill="#E8871A" points="469.544922,401.363281 401.363281,401.363281 401.363281,946.818359 878.636719,946.818359 
		878.636719,401.363281 810.453125,401.363281 810.453125,503.636719 469.544922,503.636719 	"/>
	<path fill="#E8871A" d="M640,401.363281c18.742188,0,34.089844-15.347656,34.089844-34.091797
		c0-18.742188-15.347656-34.089844-34.089844-34.089844c-18.744141,0-34.091797,15.347656-34.091797,34.089844
		C605.908203,386.015625,621.255859,401.363281,640,401.363281z"/>
	<path fill="#E8871A" d="M20,20v1240h1240V20H20z M946.818359,1015H333.181641V333.181641h210.669922
		C558.167969,293.630859,595.6875,265,640,265c44.310547,0,81.830078,28.630859,96.146484,68.181641h210.671875V1015z"/>
</g>
</svg>
