<?xml version="1.0" encoding="utf-8"?>
<!-- Generator: Adobe Illustrator 16.0.3, SVG Export Plug-In . SVG Version: 6.00 Build 0)  -->
<!DOCTYPE svg PUBLIC "-//W3C//DTD SVG 1.1//EN" "http://www.w3.org/Graphics/SVG/1.1/DTD/svg11.dtd">
<svg version="1.1" id="Layer_1" xmlns="http://www.w3.org/2000/svg" xmlns:xlink="http://www.w3.org/1999/xlink" x="0px" y="0px"
	 width="1280px" height="1280px" viewBox="0 0 1280 1280" enable-background="new 0 0 1280 1280" xml:space="preserve">
<path fill="#E8871A" d="M20,20v1240h1240V20H20z M326.456543,729.582031v-70.774414
	c0-109.266113,88.709961-197.976074,197.976074-197.976074h70.773926v-134.375L774.375,505.625L595.206543,684.791016v-134.375
	h-70.773926c-59.574707,0-108.391602,48.377441-108.391602,108.391602v70.774414h134.375L371.25,908.75L192.081543,729.582031
	H326.456543z M1043.125,1043.125h-806.25v-89.583984h806.25V1043.125z M1043.125,819.166016
	c0,24.626953-20.166016,44.791016-44.792969,44.791016H819.166016V236.875h179.166016
	c24.626953,0,44.792969,20.163574,44.792969,44.791016V819.166016z"/>
</svg>
