<?xml version="1.0" encoding="utf-8"?>
<!-- Generator: Adobe Illustrator 16.0.3, SVG Export Plug-In . SVG Version: 6.00 Build 0)  -->
<!DOCTYPE svg PUBLIC "-//W3C//DTD SVG 1.1//EN" "http://www.w3.org/Graphics/SVG/1.1/DTD/svg11.dtd">
<svg version="1.1" id="Layer_1" xmlns="http://www.w3.org/2000/svg" xmlns:xlink="http://www.w3.org/1999/xlink" x="0px" y="0px"
	 width="1280px" height="1280px" viewBox="0 0 1280 1280" enable-background="new 0 0 1280 1280" xml:space="preserve">
<path fill="#E8871A" d="M20,20v1240h1240V20H20z M478.09668,559.047852L316.191895,761.428711L154.287109,559.047852h121.428223
	v-80.953613c0-111.783203,90.617188-202.381348,202.381348-202.381348h161.904297v80.953613H478.09668
	c-67.059082,0-121.428223,54.388672-121.428223,121.427734v80.953613H478.09668z M1004.287109,963.810547
	c0,22.373047-18.103516,40.476563-40.474609,40.476563H559.049805c-22.353516,0-40.476563-18.103516-40.476563-40.476563V559.047852
	c0-22.373047,18.123047-40.477051,40.476563-40.477051H963.8125c22.371094,0,40.474609,18.104004,40.474609,40.477051V963.810547z"
	/>
</svg>
