<?xml version="1.0" encoding="utf-8"?>
<!-- Generator: Adobe Illustrator 16.0.3, SVG Export Plug-In . SVG Version: 6.00 Build 0)  -->
<!DOCTYPE svg PUBLIC "-//W3C//DTD SVG 1.1//EN" "http://www.w3.org/Graphics/SVG/1.1/DTD/svg11.dtd">
<svg version="1.1" id="Layer_1" xmlns="http://www.w3.org/2000/svg" xmlns:xlink="http://www.w3.org/1999/xlink" x="0px" y="0px"
	 width="1280px" height="1280px" viewBox="0 0 1280 1280" enable-background="new 0 0 1280 1280" xml:space="preserve">
<path fill="#E8871A" d="M0,0v1280h1280V0H0z M1037.004883,869.683594c-1.764648,2.839844-4.264648,5.211914-7.214844,6.952148
	l-368.146484,212.954102c-13.324219,7.707031-29.967285,7.707031-43.270508,0L250.206055,876.635742
	c-9.941406-5.771484-13.179199-18.182617-7.216309-27.745117c1.76709-2.885742,4.26709-5.297852,7.216309-6.99707
	l50.46875-29.168945l339.323242,196.272461l339.324219-196.272461l50.467773,29.168945
	C1039.709961,847.62207,1042.990234,860.076172,1037.004883,869.683594z M1037.004883,649.371094
	c-1.764648,2.878906-4.264648,5.289063-7.214844,6.988281L639.998047,881.84082L250.206055,656.359375
	c-9.941406-5.728516-13.179199-18.180664-7.216309-27.781738c1.76709-2.84668,4.26709-5.216309,7.216309-6.956543
	l50.46875-29.168945l339.323242,196.271484l339.324219-196.271484l50.467773,29.168945
	C1039.709961,627.39209,1042.990234,639.799805,1037.004883,649.371094z M1037.004883,431.147461
	c-1.764648,2.885254-4.264648,5.257813-7.214844,6.955566L639.998047,663.582031L250.206055,438.103027
	c-9.941406-5.730469-13.179199-18.139648-7.216309-27.742188c1.76709-2.88623,4.26709-5.259766,7.216309-6.959961
	l368.166992-212.987793c13.303223-7.709473,29.946289-7.709473,43.270508,0h-0.082031l368.228516,212.987793
	C1039.709961,409.133789,1042.990234,421.542969,1037.004883,431.147461z"/>
</svg>
