<?xml version="1.0" encoding="utf-8"?>
<!-- Generator: Adobe Illustrator 16.0.3, SVG Export Plug-In . SVG Version: 6.00 Build 0)  -->
<!DOCTYPE svg PUBLIC "-//W3C//DTD SVG 1.1//EN" "http://www.w3.org/Graphics/SVG/1.1/DTD/svg11.dtd">
<svg version="1.1" id="Layer_1" xmlns="http://www.w3.org/2000/svg" xmlns:xlink="http://www.w3.org/1999/xlink" x="0px" y="0px"
	 width="1280px" height="1280px" viewBox="0 0 1280 1280" enable-background="new 0 0 1280 1280" xml:space="preserve">
<g>
	<g>
		<path fill="#E8871A" d="M911.458008,601.961914l40.374023,23.334473c7.935547,4.617676,10.55957,14.543945,5.772461,22.199707
			c-1.412109,2.303711-3.412109,4.232422-5.772461,5.591797L639.998047,833.473633L328.163574,653.087891
			c-7.952148-4.583008-10.54248-14.544922-5.771973-22.225586c1.412598-2.277344,3.412598-4.172852,5.771973-5.565918
			l40.375-23.334473l271.459473,157.017578L911.458008,601.961914z"/>
	</g>
	<g>
		<path fill="#E8871A" d="M911.458008,778.179688l40.374023,23.335938c7.935547,4.583008,10.55957,14.544922,5.772461,22.231445
			c-1.412109,2.271484-3.412109,4.169922-5.772461,5.561523L657.31543,999.671875
			c-10.660156,6.166016-23.974609,6.166016-34.617188,0L328.163574,829.308594
			c-7.952148-4.616211-10.54248-14.544922-5.771973-22.196289c1.412598-2.308594,3.412598-4.238281,5.771973-5.59668
			l40.375-23.335938l271.459473,157.018555L911.458008,778.179688z"/>
	</g>
	<g>
		<path fill="#E8871A" d="M657.249023,280.330566l294.583008,170.390625c7.935547,4.585449,10.55957,14.512695,5.772461,22.196777
			c-1.412109,2.308594-3.412109,4.206055-5.772461,5.564941L639.998047,658.865234L328.163574,478.48291
			c-7.952148-4.584473-10.54248-14.512207-5.771973-22.194336c1.412598-2.309082,3.412598-4.20752,5.771973-5.567383
			l294.534668-170.390625c10.642578-6.16748,23.957031-6.16748,34.617188,0H657.249023z"/>
	</g>
</g>
</svg>
