<?xml version="1.0" encoding="utf-8"?>
<!-- Generator: Adobe Illustrator 16.0.3, SVG Export Plug-In . SVG Version: 6.00 Build 0)  -->
<!DOCTYPE svg PUBLIC "-//W3C//DTD SVG 1.1//EN" "http://www.w3.org/Graphics/SVG/1.1/DTD/svg11.dtd">
<svg version="1.1" id="Layer_1" xmlns="http://www.w3.org/2000/svg" xmlns:xlink="http://www.w3.org/1999/xlink" x="0px" y="0px"
	 width="1280px" height="1280px" viewBox="0 0 1280 1280" enable-background="new 0 0 1280 1280" xml:space="preserve">
<path fill="#E8871A" d="M20,20v1240h1240V20H20z M1086.630859,898.394531c-1.985352,3.194336-4.797852,5.863281-8.117188,7.820313
	l-414.165039,239.574219c-14.989258,8.669922-33.712891,8.669922-48.678711,0L201.481445,906.214844
	c-11.184082-6.492188-14.826172-20.455078-8.118164-31.212891c1.987793-3.246094,4.800293-5.959961,8.118164-7.87207
	l56.777344-32.814453l381.739258,220.806641l381.739258-220.806641l56.776367,32.814453
	C1089.673828,873.575195,1093.364258,887.585938,1086.630859,898.394531z M1086.630859,650.541992
	c-1.985352,3.239258-4.797852,5.950195-8.117188,7.862305L639.998047,912.071289L201.481445,658.404297
	c-11.184082-6.444336-14.826172-20.453125-8.118164-31.254395c1.987793-3.202637,4.800293-5.868652,8.118164-7.826172
	l56.777344-32.814941l381.739258,220.805664l381.739258-220.805664l56.776367,32.814941
	C1089.673828,625.815918,1093.364258,639.774902,1086.630859,650.541992z M1086.630859,405.040527
	c-1.985352,3.246094-4.797852,5.915039-8.117188,7.825195L639.998047,666.529297L201.481445,412.865723
	c-11.184082-6.446777-14.826172-20.407227-8.118164-31.209961c1.987793-3.24707,4.800293-5.91748,8.118164-7.830078
	l414.188477-239.611328c14.96582-8.672852,33.689453-8.672852,48.678711,0h-0.091797l414.256836,239.611328
	C1089.673828,380.275391,1093.364258,394.23584,1086.630859,405.040527z"/>
</svg>
