<?xml version="1.0" encoding="utf-8"?>
<!-- Generator: Adobe Illustrator 16.0.3, SVG Export Plug-In . SVG Version: 6.00 Build 0)  -->
<!DOCTYPE svg PUBLIC "-//W3C//DTD SVG 1.1//EN" "http://www.w3.org/Graphics/SVG/1.1/DTD/svg11.dtd">
<svg version="1.1" id="Layer_1" xmlns="http://www.w3.org/2000/svg" xmlns:xlink="http://www.w3.org/1999/xlink" x="0px" y="0px"
	 width="1280px" height="1280px" viewBox="0 0 1280 1280" enable-background="new 0 0 1280 1280" xml:space="preserve">
<path fill="#E8871A" d="M20,20v1240h1240V20H20z M1007.728516,855.957031c-1.633789,2.629883-3.950195,4.828125-6.683594,6.439453
	l-340.99707,197.249023c-12.341797,7.139648-27.758301,7.139648-40.080078,0L278.950195,862.396484
	c-9.20752-5.345703-12.206543-16.839844-6.683105-25.699219c1.635254-2.673828,3.951172-4.907227,6.683105-6.480469
	l46.746582-27.018555l314.300781,181.799805l314.302246-181.799805l46.745117,27.018555
	C1010.233398,835.523438,1013.271484,847.056641,1007.728516,855.957031z M1007.728516,651.890625
	c-1.633789,2.666992-3.950195,4.901367-6.683594,6.474609L639.997559,867.21875L278.950195,658.365234
	c-9.20752-5.306641-12.206543-16.84082-6.683105-25.733887c1.635254-2.636719,3.951172-4.832031,6.683105-6.444824
	l46.746582-27.016602L639.997559,780.96875l314.302246-181.798828l46.745117,27.016602
	C1010.233398,631.533203,1013.271484,643.026367,1007.728516,651.890625z M1007.728516,449.760742
	c-1.633789,2.672363-3.950195,4.869629-6.683594,6.443359L639.997559,665.052734L278.950195,456.204102
	c-9.20752-5.308594-12.206543-16.803223-6.683105-25.697754c1.635254-2.67334,3.951172-4.871094,6.683105-6.445801
	l341.017578-197.281738c12.321777-7.140625,27.738281-7.140625,40.080078,0h-0.076172l341.073242,197.281738
	C1010.233398,429.369629,1013.271484,440.86377,1007.728516,449.760742z"/>
</svg>
