<?xml version="1.0" encoding="utf-8"?>
<!-- Generator: Adobe Illustrator 16.0.3, SVG Export Plug-In . SVG Version: 6.00 Build 0)  -->
<!DOCTYPE svg PUBLIC "-//W3C//DTD SVG 1.1//EN" "http://www.w3.org/Graphics/SVG/1.1/DTD/svg11.dtd">
<svg version="1.1" id="Layer_1" xmlns="http://www.w3.org/2000/svg" xmlns:xlink="http://www.w3.org/1999/xlink" x="0px" y="0px"
	 width="1280px" height="1280px" viewBox="0 0 1280 1280" enable-background="new 0 0 1280 1280" xml:space="preserve">
<g>
	<path fill="#E8871A" d="M20,20v1240h1240V20H20z M1015,858.75c0,34.363281-28.136719,62.5-62.5,62.5H483.75
		c-21.544922,0-38.453125-11.230469-49.683594-27.832031L265,640l169.066406-253.753906
		C445.296875,369.675781,462.205078,358.75,483.75,358.75H952.5c34.363281,0,62.5,28.136719,62.5,62.5V858.75z"/>
	<polygon fill="#E8871A" points="814.683594,483.75 702.5,595.933594 590.316406,483.75 546.25,527.816406 658.433594,640 
		546.25,752.183594 590.316406,796.25 702.5,684.066406 814.683594,796.25 858.75,752.183594 746.566406,640 858.75,527.816406 	"/>
</g>
</svg>
