<?xml version="1.0" encoding="utf-8"?>
<!-- Generator: Adobe Illustrator 16.0.3, SVG Export Plug-In . SVG Version: 6.00 Build 0)  -->
<!DOCTYPE svg PUBLIC "-//W3C//DTD SVG 1.1//EN" "http://www.w3.org/Graphics/SVG/1.1/DTD/svg11.dtd">
<svg version="1.1" id="Layer_1" xmlns="http://www.w3.org/2000/svg" xmlns:xlink="http://www.w3.org/1999/xlink" x="0px" y="0px"
	 width="1280px" height="1280px" viewBox="0 0 1280 1280" enable-background="new 0 0 1280 1280" xml:space="preserve">
<path fill="#E8871A" d="M20,20v1240h1240V20H20z M810,834.652344v-87.117188c107.950195-27.185547,170-76.490234,170-107.535645
	C980,594.925293,850.797852,512.5,640,512.5c-210.797363,0-340,82.425293-340,127.499512
	c0,35.279785,78.629395,92.221191,212.501465,116.04541v-116.04541l169.997559,169.998535l-169.997559,170V842.705078
	C339.946777,815.519531,215,735.208984,215,639.999512C215,522.709473,405.398926,427.5,640,427.5
	c234.578125,0,425,95.209473,425,212.499512C1065,727.117188,959.995117,801.947266,810,834.652344z"/>
</svg>
