<?xml version="1.0" encoding="utf-8"?>
<!-- Generator: Adobe Illustrator 16.0.3, SVG Export Plug-In . SVG Version: 6.00 Build 0)  -->
<!DOCTYPE svg PUBLIC "-//W3C//DTD SVG 1.1//EN" "http://www.w3.org/Graphics/SVG/1.1/DTD/svg11.dtd">
<svg version="1.1" id="Layer_1" xmlns="http://www.w3.org/2000/svg" xmlns:xlink="http://www.w3.org/1999/xlink" x="0px" y="0px"
	 width="1280px" height="1280px" viewBox="0 0 1280 1280" enable-background="new 0 0 1280 1280" xml:space="preserve">
<path fill="#E8871A" d="M20,20v1240h1240V20H20z M331.474121,932.470703
	c-161.375-170.292969-154.175781-439.063477,16.085938-600.465332L518.65332,640H336.630371
	c0,41.594727,8.53125,82.837891,25.152344,120.994141c66.779297,153.703125,245.48584,224.094727,399.156738,157.316406
	l59.134766,106.478516C654.34375,1102.529297,457.417969,1065.316406,331.474121,932.470703z M932.474609,947.998047L761.353516,640
	h182.023438c0-41.594727-8.53125-82.833496-25.121094-120.994629
	c-66.837891-153.702637-245.543945-224.094727-399.188477-157.315918l-59.133789-106.478516
	c165.729492-77.740234,362.6875-40.52832,488.599609,92.317871
	C1109.881836,517.821777,1102.708984,786.592773,932.474609,947.998047z"/>
</svg>
