<?xml version="1.0" encoding="utf-8"?>
<!-- Generator: Adobe Illustrator 16.0.3, SVG Export Plug-In . SVG Version: 6.00 Build 0)  -->
<!DOCTYPE svg PUBLIC "-//W3C//DTD SVG 1.1//EN" "http://www.w3.org/Graphics/SVG/1.1/DTD/svg11.dtd">
<svg version="1.1" id="Layer_1" xmlns="http://www.w3.org/2000/svg" xmlns:xlink="http://www.w3.org/1999/xlink" x="0px" y="0px"
	 width="1280px" height="1280px" viewBox="0 0 1280 1280" enable-background="new 0 0 1280 1280" xml:space="preserve">
<path fill="#E8871A" d="M20,20v1240h1240V20H20z M678.636719,292.271484h77.271484v77.273438h-77.271484V292.271484z
	 M369.544922,292.271484h77.273438v77.273438h-77.273438V292.271484z M215,292.271484h77.271484v77.273438H215V292.271484z
	 M215,446.818359h77.271484v77.271484H215V446.818359z M215,601.363281h77.271484v77.273438H215V601.363281z M601.363281,987.726563
	H215V755.908203h386.363281V987.726563z M601.363281,369.544922h-77.273438v-77.273438h77.273438V369.544922z
	 M755.908203,987.726563h-77.271484v-77.273438h77.271484V987.726563z M910.453125,987.726563h-77.271484v-77.273438h77.271484
	V987.726563z M910.453125,567.018066l-48.787109-48.785645l-150.25,150.25l48.786133,48.787109H640.001465V597.068359
	l48.788574,48.786133l150.25-150.25l-48.787109-48.786621h120.200195V567.018066z M910.453125,369.544922h-77.271484v-77.273438
	h77.271484V369.544922z M1065,987.726563h-77.273438v-77.273438H1065V987.726563z M1065,833.181641h-77.273438v-77.273438H1065
	V833.181641z M1065,678.636719h-77.273438v-77.273438H1065V678.636719z M1065,524.089844h-77.273438v-77.271484H1065V524.089844z
	 M1065,369.544922h-77.273438v-77.273438H1065V369.544922z"/>
</svg>
