<?xml version="1.0" encoding="utf-8"?>
<!-- Generator: Adobe Illustrator 16.0.3, SVG Export Plug-In . SVG Version: 6.00 Build 0)  -->
<!DOCTYPE svg PUBLIC "-//W3C//DTD SVG 1.1//EN" "http://www.w3.org/Graphics/SVG/1.1/DTD/svg11.dtd">
<svg version="1.1" id="Layer_1" xmlns="http://www.w3.org/2000/svg" xmlns:xlink="http://www.w3.org/1999/xlink" x="0px" y="0px"
	 width="1280px" height="1280px" viewBox="0 0 1280 1280" enable-background="new 0 0 1280 1280" xml:space="preserve">
<path fill="#E8871A" d="M20,20v1240h1240V20H20z M379.980957,1032.661133c-4.687012,4.691406-11.02832,7.322266-17.640625,7.322266
	H249c-30.21875,0-45.370117-36.5625-23.999512-58.060547l101.68457-101.935547l103.324707,102.519531L379.980957,1032.661133z
	 M688.345703,894.049805c-14.842773,16.796875-38.078125,23.4375-59.561035,16.796875l-66.794434-20.3125l-79.498047,79.499023
	L332.294434,819.645508l79.49707-79.683594l-18.905273-66.795898c-5.233887-21.483398,0-44.729492,16.796387-59.575195
	l64.841797-54.061035L744,829.021484L688.345703,894.049805z M1043.569336,481.251465L778.108398,792.334961L512.647949,526.874023
	l311.146973-265.375488c33.983398-30.083984,85.418945-28.317871,117.449219,3.712402l98.575195,98.62207
	C1071.849609,395.862793,1073.568359,447.189453,1043.569336,481.251465z"/>
</svg>
