<?xml version="1.0" encoding="utf-8"?>
<!-- Generator: Adobe Illustrator 16.0.3, SVG Export Plug-In . SVG Version: 6.00 Build 0)  -->
<!DOCTYPE svg PUBLIC "-//W3C//DTD SVG 1.1//EN" "http://www.w3.org/Graphics/SVG/1.1/DTD/svg11.dtd">
<svg version="1.1" id="Layer_1" xmlns="http://www.w3.org/2000/svg" xmlns:xlink="http://www.w3.org/1999/xlink" x="0px" y="0px"
	 width="1280px" height="1280px" viewBox="0 0 1280 1280" enable-background="new 0 0 1280 1280" xml:space="preserve">
<path fill="#E8871A" d="M20,20v1240h1240V20H20z M594.77002,1000.263672l-337.669434-87.328125
	c-24.755371-6.337891-42.07666-28.634766-42.09668-54.1875V336.568848c-0.212891-17.463867,7.737305-34.026367,21.496582-44.783203
	c13.487793-10.35791,30.902832-14.136719,47.470215-10.300293l310.799316,79.714844V1000.263672z M1064.998047,858.748047
	c0.186523,25.719727-17.178711,48.257813-42.09668,54.635742l-338.564453,86.879883V361.200195l309.90332-79.714844
	c16.845703-4.330566,34.746094-0.518066,48.366211,10.300293c13.84668,10.381348,22.113281,26.583984,22.391602,43.887695
	V858.748047z"/>
</svg>
