<?xml version="1.0" encoding="utf-8"?>
<!-- Generator: Adobe Illustrator 16.0.3, SVG Export Plug-In . SVG Version: 6.00 Build 0)  -->
<!DOCTYPE svg PUBLIC "-//W3C//DTD SVG 1.1//EN" "http://www.w3.org/Graphics/SVG/1.1/DTD/svg11.dtd">
<svg version="1.1" id="Layer_1" xmlns="http://www.w3.org/2000/svg" xmlns:xlink="http://www.w3.org/1999/xlink" x="0px" y="0px"
	 width="24px" height="24px" viewBox="0 0 24 24" enable-background="new 0 0 24 24" xml:space="preserve">
<path fill="#808080" d="M13.261719,14.867188l2.480469,2.480469c-0.378906,0.722656-0.417969,1.441406-0.019531,1.839844
	L20.25,23.714844c0.570313,0.570313,1.8125,0.257813,2.765625-0.699219c0.957031-0.957031,1.269531-2.195313,0.699219-2.765625
	l-4.523438-4.527344c-0.402344-0.398438-1.121094-0.359375-1.84375,0.015625l-2.480469-2.476563L13.261719,14.867188z M8.5,0
	C3.804688,0,0,3.804688,0,8.5S3.804688,17,8.5,17S17,13.195313,17,8.5S13.195313,0,8.5,0z M8.5,15C4.910156,15,2,12.089844,2,8.5
	S4.910156,2,8.5,2S15,4.910156,15,8.5S12.089844,15,8.5,15z"/>
<path fill="#E8871A" d="M8.5,0C3.804688,0,0,3.804688,0,8.5S3.804688,17,8.5,17S17,13.195313,17,8.5S13.195313,0,8.5,0z M8.5,15
	C4.910156,15,2,12.089844,2,8.5S4.910156,2,8.5,2S15,4.910156,15,8.5S12.089844,15,8.5,15z"/>
</svg>
