<?xml version="1.0" encoding="utf-8"?>
<!-- Generator: Adobe Illustrator 16.0.3, SVG Export Plug-In . SVG Version: 6.00 Build 0)  -->
<!DOCTYPE svg PUBLIC "-//W3C//DTD SVG 1.1//EN" "http://www.w3.org/Graphics/SVG/1.1/DTD/svg11.dtd">
<svg version="1.1" id="Layer_1" xmlns="http://www.w3.org/2000/svg" xmlns:xlink="http://www.w3.org/1999/xlink" x="0px" y="0px"
	 width="1280px" height="1280px" viewBox="0 0 1280 1280" enable-background="new 0 0 1280 1280" xml:space="preserve">
<g>
	<path fill="#E8871A" d="M640.09375,568c-39.585938,0-72,32.414063-72,72s32.414063,72,72,72
		c39.568359,0,71.982422-32.414063,71.982422-72S679.662109,568,640.09375,568z"/>
	<path fill="#E8871A" d="M831.255859,706.9375l5.027344-40.640625c1.089844-10.828125,1.792969-18.738281,1.792969-26.296875
		s-0.351563-15.117188-1.792969-26.296875l-5.027344-40.640625l32.027344-25.242188l38.496094-30.585938l-25.171875-43.558594
		L830.869141,492.0625l-38.144531,15.46875l-32.765625-25.207031c-14.414063-10.792969-28.828125-19.089844-44.296875-25.558594
		l-38.144531-15.46875l-5.748047-40.710938L664.914063,352h-50.027344l-7.207031,48.585938l-5.765625,40.710938l-38.144531,15.46875
		c-14.730469,6.117188-29.496094,14.765625-45,26.296875l-32.378906,24.46875l-37.476563-15.117188L403.210938,474.0625
		l-25.171875,43.523438l38.847656,30.234375l32.027344,25.242188l-5.027344,40.640625
		C442.796875,624.53125,442.09375,632.792969,442.09375,640s0.703125,15.46875,1.792969,26.648438l5.027344,40.675781
		l-32.027344,25.207031l-38.847656,30.234375l25.171875,43.558594l45.703125-18.386719l38.179688-15.46875l32.765625,25.207031
		c14.414063,10.792969,28.792969,19.089844,44.296875,25.558594l38.144531,15.46875l5.730469,40.710938L614.886719,928h50.414063
		l7.207031-48.585938l5.748047-40.710938l38.144531-15.46875c14.730469-6.117188,29.496094-14.765625,45-26.296875
		l32.378906-24.46875l37.476563,15.117188l45.703125,18.351563l25.171875-43.523438l-38.847656-30.234375L831.255859,706.9375z
		 M640.09375,784c-79.558594,0-144-64.441406-144-144s64.441406-144,144-144c79.541016,0,143.982422,64.441406,143.982422,144
		S719.634766,784,640.09375,784z"/>
	<path fill="#E8871A" d="M20,20v1240h1240V20H20z M910.076172,640c0,12.234375-1.054688,23.765625-2.53125,35.296875
		l75.972656,59.378906c6.855469,5.414063,8.613281,15.117188,4.324219,23.027344l-72,124.59375
		c-3.234375,5.765625-9.351563,9-15.46875,9c-2.179688,0-4.359375-0.386719-6.503906-1.089844l-89.613281-36
		c-18.738281,14.027344-38.882813,26.261719-60.855469,35.261719l-13.675781,95.414063
		C728.634766,993.53125,721.076172,1000,712.076172,1000H568.09375c-9,0-16.558594-6.46875-17.648438-15.117188
		l-13.675781-95.414063c-21.972656-9-42.117188-20.882813-60.855469-35.261719l-89.613281,36
		c-1.792969,0.703125-3.972656,1.089844-6.152344,1.089844c-6.46875,0-12.585938-3.234375-15.820313-9l-72-124.59375
		c-4.289063-7.910156-2.53125-17.613281,4.324219-23.027344L372.625,675.296875
		c-1.476563-11.53125-2.53125-23.414063-2.53125-35.296875s1.054688-23.765625,2.53125-35.296875l-75.972656-59.378906
		c-6.855469-5.414063-9-15.117188-4.324219-23.027344l72-124.59375c3.234375-5.765625,9.351563-9,15.46875-9
		c2.179688,0,4.359375,0.386719,6.503906,1.089844l89.613281,36c18.738281-14.027344,38.882813-26.261719,60.855469-35.261719
		l13.675781-95.414063C551.535156,286.46875,559.09375,280,568.09375,280h143.982422c9,0,16.558594,6.46875,17.648438,15.117188
		l13.675781,95.414063c21.972656,9,42.117188,20.882813,60.855469,35.261719l89.613281-36
		c1.792969-0.703125,3.972656-1.089844,6.152344-1.089844c6.46875,0,12.585938,3.234375,15.820313,9l72,124.59375
		c4.289063,7.910156,2.53125,17.613281-4.324219,23.027344l-75.972656,59.378906
		C909.021484,616.234375,910.076172,627.765625,910.076172,640z"/>
</g>
</svg>
