<?xml version="1.0" encoding="utf-8"?>
<!-- Generator: Adobe Illustrator 16.0.3, SVG Export Plug-In . SVG Version: 6.00 Build 0)  -->
<!DOCTYPE svg PUBLIC "-//W3C//DTD SVG 1.1//EN" "http://www.w3.org/Graphics/SVG/1.1/DTD/svg11.dtd">
<svg version="1.1" id="Layer_1" xmlns="http://www.w3.org/2000/svg" xmlns:xlink="http://www.w3.org/1999/xlink" x="0px" y="0px"
	 width="1280px" height="1280px" viewBox="0 0 1280 1280" enable-background="new 0 0 1280 1280" xml:space="preserve">
<path fill="#E8871A" d="M20,20v1240h1240V20H20z M561.710938,215c12.363281,0,22.367188,10.003906,22.367188,22.367188
	c0,12.365234-10.003906,22.369141-22.367188,22.369141c-12.365234,0-22.369141-10.003906-22.369141-22.369141
	C539.341797,225.003906,549.345703,215,561.710938,215z M561.710938,326.841797
	c24.726563,0,44.736328,20.009766,44.736328,44.736328c0,24.728516-20.009766,44.736328-44.736328,44.736328
	c-24.728516,0-44.738281-20.007813-44.738281-44.736328C516.972656,346.851563,536.982422,326.841797,561.710938,326.841797z
	 M248.552734,751.841797c-12.365234,0-22.369141-10.003906-22.369141-22.369141
	c0-12.363281,10.003906-22.367188,22.369141-22.367188c12.363281,0,22.367188,10.003906,22.367188,22.367188
	C270.919922,741.837891,260.916016,751.841797,248.552734,751.841797z M248.552734,572.894531
	c-12.365234,0-22.369141-10.005859-22.369141-22.369141s10.003906-22.367188,22.369141-22.367188
	c12.363281,0,22.367188,10.003906,22.367188,22.367188S260.916016,572.894531,248.552734,572.894531z M382.761719,953.158203
	c-24.705078,0-44.736328-20.009766-44.736328-44.738281c0-24.726563,20.03125-44.736328,44.736328-44.736328
	c24.728516,0,44.738281,20.009766,44.738281,44.736328C427.5,933.148438,407.490234,953.158203,382.761719,953.158203z
	 M382.761719,774.210938c-24.705078,0-44.736328-20.009766-44.736328-44.738281c0-24.726563,20.03125-44.736328,44.736328-44.736328
	c24.728516,0,44.738281,20.009766,44.738281,44.736328C427.5,754.201172,407.490234,774.210938,382.761719,774.210938z
	 M382.761719,595.261719c-24.705078,0-44.736328-20.007813-44.736328-44.736328c0-24.726563,20.03125-44.736328,44.736328-44.736328
	c24.728516,0,44.738281,20.009766,44.738281,44.736328C427.5,575.253906,407.490234,595.261719,382.761719,595.261719z
	 M382.761719,416.314453c-24.705078,0-44.736328-20.007813-44.736328-44.736328c0-24.726563,20.03125-44.736328,44.736328-44.736328
	c24.728516,0,44.738281,20.009766,44.738281,44.736328C427.5,396.306641,407.490234,416.314453,382.761719,416.314453z
	 M561.710938,1065c-12.365234,0-22.369141-10.005859-22.369141-22.369141s10.003906-22.369141,22.369141-22.369141
	c12.363281,0,22.367188,10.005859,22.367188,22.369141S574.074219,1065,561.710938,1065z M561.710938,953.158203
	c-24.728516,0-44.738281-20.009766-44.738281-44.738281c0-24.726563,20.009766-44.736328,44.738281-44.736328
	c24.726563,0,44.736328,20.009766,44.736328,44.736328C606.447266,933.148438,586.4375,953.158203,561.710938,953.158203z
	 M561.710938,796.578125c-37.048828,0-67.105469-30.056641-67.105469-67.105469
	c0-37.046875,30.056641-67.105469,67.105469-67.105469c37.046875,0,67.103516,30.058594,67.103516,67.105469
	C628.814453,766.521484,598.757813,796.578125,561.710938,796.578125z M561.710938,617.630859
	c-37.048828,0-67.105469-30.056641-67.105469-67.105469c0-37.046875,30.056641-67.105469,67.105469-67.105469
	c37.046875,0,67.103516,30.058594,67.103516,67.105469C628.814453,587.574219,598.757813,617.630859,561.710938,617.630859z
	 M651.183594,1042.630859V237.367188c222.373047,0,402.630859,180.302734,402.630859,402.632813
	S873.556641,1042.630859,651.183594,1042.630859z"/>
</svg>
