<?xml version="1.0" encoding="utf-8"?>
<!-- Generator: Adobe Illustrator 16.0.3, SVG Export Plug-In . SVG Version: 6.00 Build 0)  -->
<!DOCTYPE svg PUBLIC "-//W3C//DTD SVG 1.1//EN" "http://www.w3.org/Graphics/SVG/1.1/DTD/svg11.dtd">
<svg version="1.1" id="Layer_1" xmlns="http://www.w3.org/2000/svg" xmlns:xlink="http://www.w3.org/1999/xlink" x="0px" y="0px"
	 width="1280px" height="1280px" viewBox="0 0 1280 1280" enable-background="new 0 0 1280 1280" xml:space="preserve">
<g>
	<path fill="#E8871A" d="M639.999023,410.59375c-86.413086,0-156.476074,70.062988-156.476074,156.476074
		c0,86.412598,70.062988,156.476074,156.476074,156.476074s156.475586-70.063477,156.475586-156.476074
		C796.474609,480.656738,726.412109,410.59375,639.999023,410.59375z M639.999023,645.308594
		c-43.20752,0-78.23877-35.03125-78.23877-78.23877s35.03125-78.239258,78.23877-78.239258
		c43.207031,0,78.239258,35.031738,78.239258,78.239258S683.206055,645.308594,639.999023,645.308594z"/>
	<path fill="#E8871A" d="M20,20v1240h1240V20H20z M888.963867,816.035156L639.999023,1065L391.03418,816.035156
		c-137.489746-137.492188-137.489746-360.438965,0.019531-497.911133c137.489258-137.508789,360.418945-137.489258,497.910156,0
		C1026.453125,455.596191,1026.453125,678.542969,888.963867,816.035156z"/>
</g>
</svg>
