<?xml version="1.0" encoding="utf-8"?>
<!-- Generator: Adobe Illustrator 16.0.3, SVG Export Plug-In . SVG Version: 6.00 Build 0)  -->
<!DOCTYPE svg PUBLIC "-//W3C//DTD SVG 1.1//EN" "http://www.w3.org/Graphics/SVG/1.1/DTD/svg11.dtd">
<svg version="1.1" id="Layer_1" xmlns="http://www.w3.org/2000/svg" xmlns:xlink="http://www.w3.org/1999/xlink" x="0px" y="0px"
	 width="1280px" height="1280px" viewBox="0 0 1280 1280" enable-background="new 0 0 1280 1280" xml:space="preserve">
<g>
	<rect x="342.5" y="427.5" fill="#E8871A" width="340" height="212.5"/>
	<path fill="#E8871A" d="M20,20v1240h1240V20H20z M342.5,746.25c0,11.6875-9.509277,21.25-21.25,21.25h-85
		c-11.735352,0-21.25-9.5625-21.25-21.25v-85c0-11.6875,9.514648-21.25,21.25-21.25h21.25V427.5h-21.25
		c-11.735352,0-21.25-9.509277-21.25-21.25v-85c0-11.735352,9.514648-21.25,21.25-21.25h85c11.740723,0,21.25,9.514648,21.25,21.25
		v21.25h340v-21.25c0-11.735352,9.5625-21.25,21.25-21.25h85c11.6875,0,21.25,9.514648,21.25,21.25v85
		c0,11.740723-9.5625,21.25-21.25,21.25H767.5V640h21.25c11.6875,0,21.25,9.5625,21.25,21.25v85
		c0,11.735352-9.511719,21.25-21.25,21.25h-85c-11.735352,0-21.25-9.514648-21.25-21.25V725h-340V746.25z M1065,618.75
		c0,11.687012-9.5625,21.25-21.25,21.25h-21.25v212.5h21.25c11.738281,0,21.25,9.514648,21.25,21.25v85
		c0,11.735352-9.511719,21.25-21.25,21.25h-85c-11.735352,0-21.25-9.514648-21.25-21.25V937.5h-340v21.25
		c0,11.6875-9.562988,21.25-21.25,21.25h-85c-11.687012,0-21.25-9.5625-21.25-21.25v-85c0-11.6875,9.562988-21.25,21.25-21.25h21.25
		v-85h85v85h340V640h-88.851563C842.140625,621.9375,828.0625,607.59375,810,601.139648V555h127.5v-21.25
		c0-11.687012,9.5625-21.25,21.25-21.25h85c11.6875,0,21.25,9.562988,21.25,21.25V618.75z"/>
</g>
</svg>
