<?xml version="1.0" encoding="utf-8"?>
<!-- Generator: Adobe Illustrator 16.0.3, SVG Export Plug-In . SVG Version: 6.00 Build 0)  -->
<!DOCTYPE svg PUBLIC "-//W3C//DTD SVG 1.1//EN" "http://www.w3.org/Graphics/SVG/1.1/DTD/svg11.dtd">
<svg version="1.1" id="Layer_1" xmlns="http://www.w3.org/2000/svg" xmlns:xlink="http://www.w3.org/1999/xlink" x="0px" y="0px"
	 width="1280px" height="1280px" viewBox="0 0 1280 1280" enable-background="new 0 0 1280 1280" xml:space="preserve">
<g>
	<path fill="#E8871A" d="M688.571289,664.286133V470c0-13.411621-10.871094-24.285645-24.285156-24.285645H421.428711
		c-13.412109,0-24.286133,10.874023-24.286133,24.285645v194.286133c0,13.356445,10.928223,24.285156,24.286133,24.285156
		h242.857422C677.642578,688.571289,688.571289,677.642578,688.571289,664.286133z"/>
	<path fill="#E8871A" d="M20,20v1240h1240V20H20z M1028.571289,421.428711c0,13.356934-10.928711,24.285645-24.285156,24.285645H980
		v388.571777h24.286133c13.414063,0,24.285156,10.873047,24.285156,24.285156v97.142578
		c0,13.412109-10.871094,24.286133-24.285156,24.286133h-97.143555c-13.412109,0-24.285156-10.874023-24.285156-24.286133
		v-24.285156H397.142578v24.285156c0,13.357422-10.867676,24.286133-24.285645,24.286133h-97.142578
		c-13.411621,0-24.286133-10.928711-24.286133-24.286133v-97.142578c0-13.357422,10.874512-24.285156,24.286133-24.285156H300
		V445.714355h-24.285645c-13.411621,0-24.286133-10.928711-24.286133-24.285645v-97.143066
		c0-13.417969,10.874512-24.285645,24.286133-24.285645h97.142578c13.417969,0,24.285645,10.867676,24.285645,24.285645v24.285156
		h485.714844v-24.285156c0-13.417969,10.928711-24.285645,24.285156-24.285645h97.143555
		c13.356445,0,24.285156,10.867676,24.285156,24.285645V421.428711z"/>
	<path fill="#E8871A" d="M858.571289,591.428711H737.142578v109.285156c0,20.1875-16.241211,36.428711-36.428711,36.428711
		H591.428711V810c0,13.357422,10.928223,24.286133,24.285645,24.286133h242.856934
		c13.414063,0,24.286133-10.875,24.286133-24.286133V615.714355C882.857422,602.356934,871.928711,591.428711,858.571289,591.428711
		z"/>
</g>
</svg>
